TexturaLibera-Condensed.sfdir
StartChar: exclam
Encoding: 33 33 1
Width: 240
Flags: MW
LayerCount: 4
Fore
SplineSet
100 40 m 25
 140 0 l 1049
100 560 m 5
 100 560 111 524 112 500 c 24
 118 383 120 200 120 200 c 1
 120 200 122 383 128 500 c 24
 130 539 140 600 140 600 c 9
 100 560 l 5
EndSplineSet
EndChar
StartChar: quotedbl
Encoding: 34 34 2
Width: 400
Flags: MW
LayerCount: 4
Fore
SplineSet
260 600 m 25
 300 560 l 1
 300 520 l 25
 240 460 l 1049
100 600 m 25
 140 560 l 1
 140 520 l 25
 80 460 l 1049
EndSplineSet
EndChar
StartChar: dollar
Encoding: 36 36 4
Width: 480
Flags: MW
LayerCount: 4
Fore
SplineSet
240 700 m 25
 240 -150 l 1049
440 600 m 17
 440 600 410 550 380 550 c 24
 292 550 160 600 160 600 c 9
 80 520 l 1
 80 340 l 1
 400 260 l 1
 400 80 l 1
 320 0 l 17
 320 0 188 50 100 50 c 24
 70 50 40 0 40 0 c 1025
EndSplineSet
EndChar
StartChar: quotesingle
Encoding: 39 39 7
Width: 240
Flags: MW
LayerCount: 4
Fore
SplineSet
100 600 m 25
 140 560 l 5
 140 520 l 29
 80 460 l 1053
EndSplineSet
EndChar
StartChar: parenright
Encoding: 41 41 9
Width: 200
Flags: MW
LayerCount: 4
Fore
SplineSet
40 700 m 17
 40 700 160 575 160 275 c 0
 160 -25 40 -150 40 -150 c 1033
EndSplineSet
EndChar
StartChar: comma
Encoding: 44 44 12
Width: 240
Flags: MW
LayerCount: 4
Fore
SplineSet
100 40 m 25
 140 0 l 1
 140 -40 l 25
 80 -100 l 1049
EndSplineSet
EndChar
StartChar: period
Encoding: 46 46 14
Width: 240
Flags: MW
LayerCount: 4
Fore
SplineSet
100 40 m 29
 140 0 l 1049
EndSplineSet
EndChar
StartChar: zero
Encoding: 48 48 16
Width: 320
Flags: MW
LayerCount: 4
Fore
SplineSet
160 400 m 1
 80 320 l 1
 80 40 l 25
 160 0 l 1
 240 80 l 1
 240 360 l 25
 160 400 l 1
EndSplineSet
Substitution2: "Subscript forms-1" zero.inferior
Substitution2: "Superscript forms-1" zero.superior
EndChar
StartChar: one
Encoding: 49 49 17
Width: 320
Flags: MW
LayerCount: 4
Fore
SplineSet
100 40 m 25
 180 0 l 1
 220 40 l 1049
180 360 m 25
 140 400 l 25
 100 360 l 1049
160 380 m 9
 160 20 l 1025
EndSplineSet
Substitution2: "Subscript forms-1" one.inferior
Substitution2: "Superscript forms-1" one.superior
EndChar
StartChar: six
Encoding: 54 54 22
Width: 320
Flags: MW
LayerCount: 4
Fore
SplineSet
80 320 m 25
 160 400 l 25
 240 320 l 25
 240 80 l 25
 160 0 l 25
 80 80 l 1
 80 540 l 1
 140 600 l 25
 163 590 170 575 200 575 c 3
 222 575 225 590 241 600 c 1049
EndSplineSet
Substitution2: "Subscript forms-1" six.inferior
Substitution2: "Superscript forms-1" six.superior
EndChar
StartChar: eight
Encoding: 56 56 24
Width: 320
Flags: MW
LayerCount: 4
Fore
SplineSet
160 600 m 25
 80 520 l 25
 80 365 l 25
 160 325 l 25
 240 405 l 25
 240 520 l 25
 160 600 l 25
160 325 m 25
 80 245 l 25
 80 80 l 25
 160 0 l 25
 240 80 l 25
 240 285 l 25
 160 325 l 25
EndSplineSet
Substitution2: "Subscript forms-1" eight.inferior
Substitution2: "Superscript forms-1" eight.superior
EndChar
StartChar: colon
Encoding: 58 58 26
Width: 240
Flags: MW
LayerCount: 4
Fore
SplineSet
100 350 m 25
 140 310 l 1049
100 40 m 25
 140 0 l 1049
EndSplineSet
EndChar
StartChar: semicolon
Encoding: 59 59 27
Width: 240
Flags: MW
LayerCount: 4
Fore
SplineSet
100 40 m 25
 140 0 l 1
 140 -40 l 25
 80 -100 l 1049
100 350 m 25
 140 310 l 1049
EndSplineSet
EndChar
StartChar: less
Encoding: 60 60 28
Width: 480
Flags: MW
LayerCount: 4
Fore
SplineSet
400 500 m 25
 80 300 l 25
 400 100 l 1049
EndSplineSet
EndChar
StartChar: equal
Encoding: 61 61 29
Width: 480
Flags: MW
LayerCount: 4
Fore
SplineSet
80 200 m 25
 400 200 l 1049
80 400 m 25
 400 400 l 1049
EndSplineSet
EndChar
StartChar: greater
Encoding: 62 62 30
Width: 480
Flags: MW
LayerCount: 4
Fore
SplineSet
80 500 m 25
 400 300 l 25
 80 100 l 1053
EndSplineSet
EndChar
StartChar: question
Encoding: 63 63 31
Width: 320
Flags: MW
LayerCount: 4
Fore
SplineSet
80 450 m 25
 80 540 l 25
 140 600 l 25
 240 550 l 25
 240 400 l 25
 160 320 l 25
 160 200 l 1049
140 40 m 25
 180 0 l 1049
EndSplineSet
EndChar
StartChar: at
Encoding: 64 64 32
Width: 640
Flags: MW
LayerCount: 4
Fore
SplineSet
520 -50 m 1
 520 -50 440 -150 320 -150 c 11
 146 -150 80 51 80 225 c 27
 80 408 177 600 360 600 c 27
 493 600 560 458 560 325 c 27
 560 216 460 65 460 65 c 26
 420 25 l 1
 400 45 l 1
 400 425 l 1
 400 425 382 393 360 393 c 0
 338 393 320 425 320 425 c 9
 240 345 l 1
 240 85 l 17
 300 25 l 1
 400 125 l 1049
EndSplineSet
EndChar
StartChar: A
Encoding: 65 65 33
Width: 560
Flags: MW
AnchorPoint: "blwmark" 320 0 basechar 0
AnchorPoint: "abvmark" 360 700 basechar 0
LayerCount: 4
Fore
SplineSet
425 550 m 25
 375 600 l 25
 325 550 l 1049
160 300 m 1
 160 300 184 350 240 350 c 3
 342 350 400 250 401 250 c 1025
180 575 m 1
 180 575 188 600 220 600 c 11
 259 600 280 549 280 500 c 3
 280 263 141 75 141 75 c 1025
40 0 m 17
 40 0 65 50 120 50 c 3
 198 50 220 0 220 0 c 1025
400 575 m 1
 440 50 l 5
 490 0 l 13
 540 50 l 1053
EndSplineSet
EndChar
StartChar: D
Encoding: 68 68 36
Width: 560
Flags: MW
AnchorPoint: "blwmark" 280 0 basechar 0
AnchorPoint: "abvmark" 320 700 basechar 0
LayerCount: 4
Fore
SplineSet
40 550 m 1
 40 550 67 600 99 600 c 3
 128 600 142 575 160 575 c 3
 182 575 200 600 201 600 c 1025
260 150 m 1
 260 560 l 1
 300 600 l 1
 480 475 l 1
 480 80.7998046875 l 1
 400 0 l 17
 400 0 279 50 120 50 c 3
 65 50 40 0 40 0 c 1033
EndSplineSet
Layer: 2
SplineSet
160 550 m 5
 160 75 l 1029
EndSplineSet
EndChar
StartChar: E
Encoding: 69 69 37
Width: 600
Flags: MW
AnchorPoint: "blwmark" 320 0 basechar 0
AnchorPoint: "abvmark" 360 700 basechar 0
LayerCount: 4
Fore
SplineSet
340 300 m 25
 340 300 378 350 400 350 c 27
 428 350 412 300 440 300 c 3
 473 300 500 350 501 350 c 1049
340 500 m 1
 340 100 l 1025
240 600 m 1
 240 600 100 480 100 300 c 3
 100 134 176 0 320 0 c 3
 415 0 521 150 522 150 c 1025
240 492 m 1
 240 492 316 600 364 600 c 3
 415 600 394 550 440 550 c 3
 478 550 500 600 501 600 c 1025
EndSplineSet
Layer: 2
SplineSet
240 550 m 5
 240 100 l 1029
EndSplineSet
EndChar
StartChar: F
Encoding: 70 70 38
Width: 560
Flags: MW
AnchorPoint: "blwmark" 280 0 basechar 0
AnchorPoint: "abvmark" 320 700 basechar 0
LayerCount: 4
Fore
SplineSet
40 0 m 17
 40 0 65 50 120 50 c 3
 198 50 220 0 220 0 c 9
 260 40 l 1
 260 560 l 1
 300 600 l 1
 300 600 351 525 400 525 c 27
 443 525 480 600 481 600 c 1025
40 550 m 1
 40 550 67 600 99 600 c 3
 128 600 142 575 160 575 c 3
 182 575 200 600 201 600 c 1025
280 300 m 1
 280 300 315 350 337 350 c 3
 365 350 372 300 400 300 c 3
 433 300 460 350 461 350 c 1049
EndSplineSet
Layer: 2
SplineSet
160 550 m 5
 160 75 l 1029
EndSplineSet
EndChar
StartChar: H
Encoding: 72 72 40
Width: 560
Flags: MW
AnchorPoint: "blwmark" 320 0 basechar 0
AnchorPoint: "abvmark" 320 700 basechar 0
LayerCount: 4
Fore
SplineSet
40 550 m 1
 40 550 67 600 99 600 c 3
 128 600 142 575 160 575 c 3
 182 575 200 600 201 600 c 1025
300 275 m 1
 400 375 l 1
 440 335 l 1
 440 50 l 1
 490 0 l 9
 540 50 l 1049
300 600 m 1
 260 560 l 1
 260 40 l 1
 220 0 l 1
 220 0 198 50 120 50 c 3
 65 50 40 0 40 0 c 1033
EndSplineSet
Layer: 2
SplineSet
160 550 m 5
 160 75 l 1029
EndSplineSet
EndChar
StartChar: J
Encoding: 74 74 42
Width: 360
Flags: MW
AnchorPoint: "abvmark" 200 700 basechar 0
LayerCount: 4
Fore
SplineSet
40 550 m 1
 40 550 67 600 99 600 c 3
 128 600 142 575 160 575 c 3
 182 575 200 600 201 600 c 1025
300 600 m 1
 260 560 l 1
 260 -100 l 1
 160 -200 l 1
 160 -200 138 -150 60 -150 c 3
 5 -150 -20 -200 -20 -200 c 1025
EndSplineSet
Layer: 2
SplineSet
160 550 m 5
 160 -125 l 1029
EndSplineSet
EndChar
StartChar: Q
Encoding: 81 81 49
Width: 640
Flags: MW
AnchorPoint: "blwmark" 320 0 basechar 0
AnchorPoint: "abvmark" 360 700 basechar 0
LayerCount: 4
Fore
SplineSet
440 0 m 25
 440 0 452 25 480 25 c 27
 508 25 524 0 552 0 c 27
 574 0 600 50 600 50 c 1049
342 550 m 1
 340 100 l 1025
240 600 m 1
 240 600 100 480 100 300 c 3
 100 134 176 0 320 0 c 3
 415 0 522 142 522 300 c 3
 522 512 449 600 360 600 c 3
 290 600 240 492 240 492 c 1025
EndSplineSet
Layer: 2
SplineSet
240 550 m 5
 240 100 l 1029
EndSplineSet
EndChar
StartChar: R
Encoding: 82 82 50
Width: 560
Flags: MW
AnchorPoint: "blwmark" 320 0 basechar 0
AnchorPoint: "abvmark" 320 700 basechar 0
LayerCount: 4
Fore
SplineSet
40 550 m 1
 40 550 67 600 99 600 c 3
 128 600 142 575 160 575 c 3
 182 575 200 600 201 600 c 1025
360 355 m 1
 480 475 l 1
 300 600 l 1
 260 560 l 1
 260 40 l 1
 220 0 l 1
 220 0 198 50 120 50 c 3
 65 50 40 0 40 0 c 1033
400 375 m 1
 440 325 l 1
 440 40 l 1
 480 0 l 9
 520 40 l 1049
EndSplineSet
Layer: 2
SplineSet
160 550 m 5
 160 75 l 1029
EndSplineSet
EndChar
StartChar: S
Encoding: 83 83 51
Width: 560
Flags: MW
AnchorPoint: "blwmark" 280 0 basechar 0
AnchorPoint: "abvmark" 280 700 basechar 0
LayerCount: 4
Fore
SplineSet
440 525 m 25
 98 100 l 1049
360 169 m 1
 80 290 l 9
 120 375 l 1049
480 600 m 1
 480 600 411 550 360 550 c 3
 303 550 160 600 160 600 c 1
 80 500 l 1
 80 440 l 1
 480 260 l 1
 480 100 l 1
 400 0 l 1
 400 0 216 50 160 50 c 3
 102 50 40 0 40 0 c 1025
EndSplineSet
EndChar
StartChar: U
Encoding: 85 85 53
Width: 560
Flags: MW
AnchorPoint: "blwmark" 280 0 basechar 0
AnchorPoint: "abvmark" 360 700 basechar 0
LayerCount: 4
Fore
SplineSet
320 550 m 1
 320 100 l 1025
460 40 m 25
 500 0 l 25
 540 40 l 1049
460 625 m 25
 500 585 l 1049
480 605 m 9
 480 20 l 1049
200 550 m 1
 200 550 100 466 100 250 c 3
 100 84 171 0 280 0 c 3
 375 0 481 150 482 150 c 1049
40 550 m 1
 40 550 67 600 99 600 c 3
 163 600 182 575 320 575 c 3
 342 575 360 600 361 600 c 1025
EndSplineSet
Layer: 2
SplineSet
220 525 m 5
 220 50 l 1029
EndSplineSet
EndChar
StartChar: X
Encoding: 88 88 56
Width: 480
Flags: MW
AnchorPoint: "abvmark" 240 700 basechar 0
LayerCount: 4
Fore
SplineSet
80 275 m 25
 80 275 125 325 160 325 c 27
 223 325 257 300 320 300 c 27
 355 300 400 350 400 350 c 1049
440 40 m 25
 400 0 l 17
 100 600 l 9
 60 560 l 1049
40 40 m 25
 80 0 l 17
 380 600 l 9
 420 560 l 1049
EndSplineSet
EndChar
StartChar: Y
Encoding: 89 89 57
Width: 560
Flags: MW
AnchorPoint: "abvmark" 360 700 basechar 0
LayerCount: 4
Fore
SplineSet
40 550 m 1
 40 550 67 600 99 600 c 3
 128 600 142 575 160 575 c 3
 182 575 200 600 201 600 c 1025
260 250 m 1
 260 560 l 1
 300 600 l 1025
80 100 m 17
 80 100 110 150 140 150 c 3
 299 150 300 0 300 0 c 1
 460 160 l 1025
40 -200 m 17
 40 -200 53 -150 200 -150 c 3
 330 -150 380 -200 380 -200 c 9
 460 -120 l 1
 460 580 l 1025
440 600 m 25
 480 560 l 1049
EndSplineSet
Layer: 2
SplineSet
160 550 m 5
 160 175 l 1029
EndSplineSet
EndChar
StartChar: Z
Encoding: 90 90 58
Width: 560
Flags: MW
AnchorPoint: "blwmark" 240 0 basechar 0
AnchorPoint: "abvmark" 280 700 basechar 0
LayerCount: 4
Fore
SplineSet
120 275 m 25
 120 275 165 325 200 325 c 27
 263 325 297 300 360 300 c 27
 395 300 440 350 440 350 c 1049
500 80 m 1
 420 0 l 1
 420 0 358 50 160 50 c 3
 102 50 40 0 40 0 c 1
 480 600 l 1
 480 600 411 550 360 550 c 3
 192 550 80 600 80 600 c 1025
EndSplineSet
EndChar
StartChar: bracketleft
Encoding: 91 91 59
Width: 240
Flags: MW
LayerCount: 4
Fore
SplineSet
200 700 m 25
 80 700 l 25
 80 -150 l 25
 200 -150 l 1033
EndSplineSet
EndChar
StartChar: bracketright
Encoding: 93 93 61
Width: 240
Flags: MW
LayerCount: 4
Fore
SplineSet
40 700 m 25
 160 700 l 29
 160 -150 l 29
 40 -150 l 1033
EndSplineSet
EndChar
StartChar: b
Encoding: 98 98 66
Width: 320
Flags: MW
AnchorPoint: "blwmark" 160 0 basechar 0
AnchorPoint: "abvmark" 160 700 basechar 0
LayerCount: 4
Fore
SplineSet
60 625 m 25
 100 585 l 1049
80 605 m 9
 80 80 l 25
 160 0 l 25
 240 80 l 25
 240 320 l 25
 160 400 l 1
 80 320 l 1049
EndSplineSet
EndChar
StartChar: c
Encoding: 99 99 67
Width: 280
Flags: MW
AnchorPoint: "blwmark" 160 0 basechar 0
AnchorPoint: "abvmark" 160 500 basechar 0
LayerCount: 4
Fore
SplineSet
240 320 m 9
 160 400 l 25
 80 320 l 25
 80 80 l 25
 160 0 l 25
 240 80 l 1041
EndSplineSet
EndChar
StartChar: e
Encoding: 101 101 69
Width: 280
Flags: MW
AnchorPoint: "blwmark" 160 0 basechar 0
AnchorPoint: "abvmark" 160 500 basechar 0
LayerCount: 4
Fore
SplineSet
240 80 m 9
 160 0 l 25
 80 80 l 25
 80 320 l 25
 160 400 l 25
 240 320 l 1
 240 280 l 5
 80 120 l 1033
EndSplineSet
EndChar
StartChar: f
Encoding: 102 102 70
Width: 240
Flags: MW
AnchorPoint: "abvmark" 140 700 basechar 0
LayerCount: 4
Fore
SplineSet
-100 -200 m 17
 -100 -200 -70 -150 -40 -150 c 8
 -3 -150 3 -200 40 -200 c 24
 70 -200 100 -150 100 -150 c 1
 100 570 l 1
 180 650 l 17
 180 650 212 610 240 610 c 24
 268 610 300 650 301 650 c 1033
40 400 m 25
 200 400 l 1049
EndSplineSet
EndChar
StartChar: g
Encoding: 103 103 71
Width: 320
Flags: MW
AnchorPoint: "abvmark" 180 500 basechar 0
LayerCount: 4
Fore
SplineSet
40 -200 m 17
 40 -200 70 -150 100 -150 c 8
 137 -150 143 -200 180 -200 c 24
 210 -200 240 -150 240 -150 c 9
 240 400 l 1
 240 400 220 368 200 368 c 24
 180 368 160 400 160 400 c 1
 80 320 l 25
 80 80 l 25
 160 0 l 25
 240 80 l 1041
EndSplineSet
EndChar
StartChar: i
Encoding: 105 105 73
Width: 160
Flags: MW
AnchorPoint: "blwmark" 80 0 basechar 0
LayerCount: 4
Fore
SplineSet
80 640 m 25
 120 600 l 25
 80 560 l 1049
60 40 m 25
 100 0 l 25
 140 40 l 1049
100 360 m 25
 60 400 l 25
 20 360 l 1049
80 380 m 9
 80 20 l 1025
EndSplineSet
Substitution2: "Dotless forms-1" dotlessi
EndChar
StartChar: j
Encoding: 106 106 74
Width: 160
Flags: MW
LayerCount: 4
Fore
SplineSet
80 640 m 25
 120 600 l 25
 80 560 l 1049
100 360 m 25
 60 400 l 25
 20 360 l 1049
80 380 m 1
 80 -110 l 9
 40 -150 l 1049
EndSplineSet
Substitution2: "Dotless forms-1" dotlessj
EndChar
StartChar: k
Encoding: 107 107 75
Width: 320
Flags: MW
AnchorPoint: "blwmark" 160 0 basechar 0
AnchorPoint: "abvmark" 160 700 basechar 0
LayerCount: 4
Fore
SplineSet
220 425 m 25
 260 385 l 1049
60 625 m 25
 100 585 l 1049
60 625 m 25
 100 585 l 1049
80 200 m 1
 240 350 l 9
 240 405 l 1049
160 275 m 1
 240 200 l 1
 240 20 l 1025
220 40 m 25
 260 0 l 1049
60 40 m 25
 100 0 l 1049
60 625 m 25
 100 585 l 1049
80 605 m 9
 80 20 l 1049
EndSplineSet
EndChar
StartChar: l
Encoding: 108 108 76
Width: 160
Flags: MW
AnchorPoint: "blwmark" 80 0 basechar 0
AnchorPoint: "abvmark" 80 700 basechar 0
LayerCount: 4
Fore
SplineSet
60 40 m 25
 100 0 l 25
 140 40 l 1049
60 625 m 25
 100 585 l 1049
80 605 m 9
 80 20 l 1049
EndSplineSet
EndChar
StartChar: m
Encoding: 109 109 77
Width: 480
Flags: MW
AnchorPoint: "blwmark" 240 0 basechar 0
AnchorPoint: "abvmark" 240 500 basechar 0
LayerCount: 4
Fore
SplineSet
380 40 m 25
 420 0 l 1049
400 20 m 1
 400 340 l 25
 340 400 l 1
 240 300 l 1049
220 40 m 25
 260 0 l 1049
240 20 m 1
 240 340 l 25
 180 400 l 1
 80 300 l 1049
60 40 m 25
 100 0 l 1049
100 360 m 25
 60 400 l 1049
80 380 m 9
 80 20 l 1025
EndSplineSet
Substitution2: "Stylistic alternates-1" m.alt
EndChar
StartChar: n
Encoding: 110 110 78
Width: 320
Flags: MW
AnchorPoint: "blwmark" 160 0 basechar 0
AnchorPoint: "abvmark" 160 500 basechar 0
LayerCount: 4
Fore
SplineSet
220 40 m 25
 260 0 l 1049
240 20 m 1
 240 340 l 25
 180 400 l 1
 80 300 l 1049
60 40 m 25
 100 0 l 1049
100 360 m 25
 60 400 l 1049
80 380 m 9
 80 20 l 1025
EndSplineSet
Substitution2: "Stylistic alternates-1" n.alt
EndChar
StartChar: o
Encoding: 111 111 79
Width: 320
Flags: MW
AnchorPoint: "blwmark" 160 0 basechar 0
AnchorPoint: "abvmark" 160 500 basechar 0
LayerCount: 4
Fore
SplineSet
160 400 m 25
 80 320 l 25
 80 80 l 25
 160 0 l 25
 240 80 l 25
 240 320 l 25
 160 400 l 25
EndSplineSet
EndChar
StartChar: p
Encoding: 112 112 80
Width: 320
Flags: MW
AnchorPoint: "abvmark" 160 500 basechar 0
LayerCount: 4
Fore
SplineSet
40 0 m 1
 40 0 77 40 100 40 c 0
 123 40 160 0 160 0 c 9
 240 80 l 1
 240 320 l 25
 160 400 l 1
 80 320 l 1049
55 400 m 29
 105 350 l 1053
80 375 m 5
 80 -150 l 1025
EndSplineSet
EndChar
StartChar: q
Encoding: 113 113 81
Width: 320
Flags: MW
AnchorPoint: "abvmark" 180 500 basechar 0
LayerCount: 4
Fore
SplineSet
240 80 m 9
 160 0 l 25
 80 80 l 25
 80 320 l 29
 160 400 l 5
 160 400 180 368 200 368 c 28
 220 368 240 400 240 400 c 9
 240 -150 l 1049
EndSplineSet
EndChar
StartChar: r
Encoding: 114 114 82
Width: 240
Flags: MW
AnchorPoint: "blwmark" 120 0 basechar 0
AnchorPoint: "abvmark" 120 500 basechar 0
LayerCount: 4
Fore
SplineSet
200 360 m 25
 160 400 l 25
 80 320 l 1049
55 50 m 25
 105 0 l 1049
55 400 m 25
 105 350 l 1049
80 375 m 9
 80 25 l 1025
EndSplineSet
EndChar
StartChar: s
Encoding: 115 115 83
Width: 320
Flags: MW
AnchorPoint: "blwmark" 160 0 basechar 0
AnchorPoint: "abvmark" 160 500 basechar 0
LayerCount: 4
Fore
SplineSet
280 400 m 17
 280 400 248 360 220 360 c 24
 192 360 160 400 160 400 c 9
 80 320 l 1
 80 240 l 1
 240 160 l 1
 240 80 l 1
 160 0 l 17
 160 0 128 40 100 40 c 24
 72 40 40 0 40 0 c 1025
EndSplineSet
EndChar
StartChar: t
Encoding: 116 116 84
Width: 260
Flags: MW
AnchorPoint: "blwmark" 140 0 basechar 0
AnchorPoint: "abvmark" 120 650 basechar 0
LayerCount: 4
Fore
SplineSet
40 400 m 25
 200 400 l 1049
100 550 m 1
 100 40 l 5
 140 0 l 1
 220 80 l 1029
EndSplineSet
EndChar
StartChar: u
Encoding: 117 117 85
Width: 320
Flags: MW
AnchorPoint: "blwmark" 160 0 basechar 0
AnchorPoint: "abvmark" 160 500 basechar 0
LayerCount: 4
Fore
SplineSet
105 350 m 25
 55 400 l 1049
300 40 m 25
 260 0 l 1
 240 20 l 17
 240 375 l 1025
265 350 m 25
 215 400 l 1049
80 375 m 25
 80 60 l 1
 140 0 l 25
 240 100 l 1049
EndSplineSet
EndChar
StartChar: v
Encoding: 118 118 86
Width: 320
Flags: MW
AnchorPoint: "blwmark" 160 0 basechar 0
LayerCount: 4
Fore
SplineSet
100 360 m 25
 60 400 l 1049
80 380 m 25
 80 80 l 1
 160 0 l 25
 240 80 l 1
 240 380 l 17
 240 380 200 423 200 472 c 8
 200 507 244 550 244 550 c 1033
EndSplineSet
Substitution2: "Dotless forms-1" v.alt
EndChar
StartChar: w
Encoding: 119 119 87
Width: 480
Flags: MW
AnchorPoint: "blwmark" 240 0 basechar 0
LayerCount: 4
Fore
SplineSet
260 360 m 25
 220 400 l 1049
240 380 m 25
 240 80 l 5
 320 0 l 25
 400 80 l 5
 400 380 l 17
 400 380 360 423 360 472 c 8
 360 507 404 550 404 550 c 1033
100 360 m 25
 60 400 l 1049
80 380 m 25
 80 80 l 5
 160 0 l 29
 240 80 l 1029
EndSplineSet
Substitution2: "Dotless forms-1" w.alt
EndChar
StartChar: y
Encoding: 121 121 89
Width: 320
Flags: MW
AnchorPoint: "abvmark" 160 500 basechar 0
LayerCount: 4
Fore
SplineSet
100 360 m 25
 60 400 l 1049
260 360 m 25
 220 400 l 1049
40 -200 m 17
 40 -200 70 -150 100 -150 c 8
 137 -150 143 -200 180 -200 c 24
 210 -200 240 -150 240 -150 c 1
 240 380 l 1025
240 80 m 9
 160 0 l 25
 80 80 l 1
 80 380 l 1049
EndSplineSet
EndChar
StartChar: z
Encoding: 122 122 90
Width: 280
Flags: MW
AnchorPoint: "abvmark" 120 500 basechar 0
LayerCount: 4
Fore
SplineSet
40 400 m 17
 40 400 65 360 100 360 c 0
 122 360 160 400 160 400 c 1
 200 360 l 1
 80 200 l 5
 200 100 l 1
 200 -150 l 1
 200 -150 162 -200 140 -200 c 0
 114 -200 97 -150 60 -150 c 16
 30 -150 0 -200 0 -200 c 1025
EndSplineSet
EndChar
StartChar: exclamdown
Encoding: 161 161 200
Width: 240
Flags: MW
LayerCount: 4
Fore
SplineSet
140 360 m 25
 100 400 l 1049
140 -160 m 1
 140 -160 129 -124 128 -100 c 24
 122 17 120 200 120 200 c 1
 120 200 118 17 112 -100 c 24
 110 -139 100 -200 100 -200 c 9
 140 -160 l 1
EndSplineSet
EndChar
StartChar: currency
Encoding: 164 164 207
Width: 400
Flags: MW
LayerCount: 4
Fore
SplineSet
360 0 m 25
 280 125 l 1049
40 0 m 25
 120 125 l 1049
360 600 m 25
 280 475 l 1049
40 600 m 25
 120 475 l 1049
180 500 m 25
 80 400 l 25
 80 180 l 25
 220 100 l 25
 320 200 l 25
 320 420 l 25
 180 500 l 25
EndSplineSet
EndChar
StartChar: yen
Encoding: 165 165 204
Width: 520
Flags: MW
LayerCount: 4
Fore
SplineSet
40 550 m 1
 40 550 67 600 99 600 c 3
 128 600 160 575 160 575 c 1
 160 275 l 1025
80 200 m 17
 80 200 110 250 140 250 c 3
 248 250 260 150 260 150 c 1
 380 270 l 1025
40 -200 m 17
 40 -200 53 -150 200 -150 c 3
 295 -150 300 -200 300 -200 c 9
 380 -120 l 1
 380 580 l 1025
360 600 m 25
 400 560 l 1049
120 -25 m 17
 120 -25 152 25 180 25 c 27
 274 25 326 0 420 0 c 27
 448 0 480 50 480 50 c 1033
EndSplineSet
EndChar
StartChar: brokenbar
Encoding: 166 166 205
Width: 200
Flags: MW
LayerCount: 4
Fore
SplineSet
100 -150 m 17
 100 200 l 1025
100 350 m 1
 100 700 l 1033
EndSplineSet
EndChar
StartChar: dieresis
Encoding: 168 168 101
Width: 320
Flags: MW
LayerCount: 4
Fore
SplineSet
220 600 m 25
 260 560 l 1049
60 600 m 25
 100 560 l 1049
EndSplineSet
EndChar
StartChar: logicalnot
Encoding: 172 172 225
Width: 480
Flags: MW
LayerCount: 4
Fore
SplineSet
80 400 m 25
 400 400 l 25
 400 200 l 1053
EndSplineSet
EndChar
StartChar: macron
Encoding: 175 175 227
Width: 320
Flags: MW
LayerCount: 4
Fore
SplineSet
60 550 m 1
 260 550 l 1053
EndSplineSet
EndChar
StartChar: plusminus
Encoding: 177 177 213
Width: 480
Flags: MW
LayerCount: 4
Fore
SplineSet
80 25 m 29
 400 25 l 1053
240 575 m 25
 240 175 l 1049
80 375 m 25
 400 375 l 1049
EndSplineSet
EndChar
StartChar: acute
Encoding: 180 180 99
Width: 320
Flags: MW
LayerCount: 4
Fore
SplineSet
220 700 m 21
 220 600 120 525 120 525 c 1053
EndSplineSet
EndChar
StartChar: micro
Encoding: 181 181 209
Width: 320
Flags: MW
LayerCount: 4
Fore
SplineSet
80 380 m 1
 80 -150 l 1025
100 360 m 9
 60 400 l 1041
300 40 m 9
 260 0 l 1
 240 20 l 17
 240 380 l 1025
260 360 m 9
 220 400 l 1041
40 0 m 1
 40 0 48 25 100 25 c 3
 149 25 160 0 160 0 c 9
 240 80 l 1025
EndSplineSet
EndChar
StartChar: periodcentered
Encoding: 183 183 212
Width: 240
Flags: MW
LayerCount: 4
Fore
SplineSet
95 340 m 25
 145 290 l 1049
EndSplineSet
EndChar
StartChar: cedilla
Encoding: 184 184 102
Width: 320
Flags: MW
LayerCount: 4
Fore
SplineSet
160 0 m 25
 140 -25 l 1
 240 -100 l 5
 160 -200 l 5
 160 -200 139 -175 100 -175 c 3
 52 -175 40 -200 40 -200 c 1025
EndSplineSet
EndChar
StartChar: guillemotright
Encoding: 187 187 216
Width: 440
Flags: MW
LayerCount: 4
Fore
SplineSet
260 325 m 21
 260 325 277 295 300 275 c 4
 376 207 400 200 400 200 c 5
 400 200 349 174 280 100 c 4
 263 82 240 50 240 50 c 1037
60 325 m 17
 60 325 77 295 100 275 c 0
 176 207 200 200 200 200 c 1
 200 200 149 174 80 100 c 0
 63 82 40 50 40 50 c 1033
EndSplineSet
EndChar
StartChar: questiondown
Encoding: 191 191 201
Width: 320
Flags: MW
LayerCount: 4
Fore
SplineSet
240 -50 m 25
 240 -140 l 25
 180 -200 l 25
 80 -150 l 25
 80 -30 l 25
 160 50 l 25
 160 200 l 1049
180 360 m 25
 140 400 l 1049
EndSplineSet
EndChar
StartChar: AE
Encoding: 198 198 188
Width: 920
Flags: MW
AnchorPoint: "blwmark" 480 0 basechar 0
AnchorPoint: "abvmark" 480 700 basechar 0
LayerCount: 4
Fore
SplineSet
420 560 m 9
 380 600 l 25
 340 560 l 1041
160 300 m 1
 160 300 184 350 240 350 c 3
 342 350 400 250 401 250 c 1025
180 575 m 1
 180 575 188 600 220 600 c 11
 259 600 280 549 280 500 c 3
 280 263 141 75 141 75 c 1025
40 0 m 1
 40 0 65 50 120 50 c 3
 198 50 220 0 220 0 c 1025
400 580 m 1
 420 300 l 1025
660 300 m 25
 660 300 698 350 720 350 c 27
 748 350 732 300 760 300 c 3
 793 300 820 350 821 350 c 1049
660 500 m 1
 660 100 l 1025
560 600 m 1
 560 600 420 480 420 300 c 3
 420 134 496 0 640 0 c 3
 735 0 841 150 842 150 c 1025
560 492 m 1
 560 492 636 600 684 600 c 3
 735 600 714 550 760 550 c 3
 798 550 820 600 821 600 c 1025
EndSplineSet
Layer: 2
SplineSet
560 550 m 5
 560 100 l 1029
EndSplineSet
EndChar
StartChar: multiply
Encoding: 215 215 223
Width: 480
Flags: MW
LayerCount: 4
Fore
SplineSet
400 500 m 25
 80 100 l 1049
80 500 m 25
 400 100 l 1049
EndSplineSet
EndChar
StartChar: germandbls
Encoding: 223 223 131
Width: 400
Flags: MW
AnchorPoint: "abvmark" 240 750 basechar 0
LayerCount: 4
Fore
SplineSet
120 400 m 1
 120 400 179 360 214 360 c 3
 273 360 280 400 280 400 c 1
 320 360 l 1
 200 200 l 1
 320 100 l 1
 320 -150 l 1
 320 -150 282 -200 260 -200 c 1
 207 -113 100 0 100 0 c 1025
-100 -200 m 17
 -100 -200 -70 -150 -40 -150 c 8
 -3 -150 3 -200 40 -200 c 24
 70 -200 100 -150 100 -150 c 1
 100 570 l 1
 180 650 l 17
 180 650 212 610 240 610 c 24
 268 610 300 650 301 650 c 1033
EndSplineSet
EndChar
StartChar: ae
Encoding: 230 230 189
Width: 440
Flags: MW
AnchorPoint: "blwmark" 240 0 basechar 0
AnchorPoint: "abvmark" 240 500 basechar 0
LayerCount: 4
Fore
SplineSet
100 280 m 17
 80 340 l 1
 140 400 l 1
 240 375 l 1
 240 100 l 9
 140 0 l 1
 80 60 l 1
 80 190 l 1
 140 250 l 1
 140 250 155 230 200 230 c 3
 215 230 240 230 240 230 c 1033
240 120 m 1
 400 280 l 1
 400 320 l 1
 320 400 l 25
 240 320 l 25
 240 80 l 25
 320 0 l 25
 400 80 l 1041
EndSplineSet
EndChar
StartChar: eth
Encoding: 240 240 181
Width: 320
Flags: MW
AnchorPoint: "blwmark" 160 0 basechar 0
AnchorPoint: "abvmark" 200 700 basechar 0
LayerCount: 4
Fore
SplineSet
250 640 m 1
 60 450 l 1025
240 320 m 1
 160 400 l 25
 80 320 l 1
 80 80 l 25
 160 0 l 25
 240 80 l 1
 240 450 l 10
 240 500 195 550 160 550 c 0
 125 550 80 563 80 600 c 27
 80 623 100 630 113 650 c 1049
EndSplineSet
EndChar
StartChar: thorn
Encoding: 254 254 179
Width: 320
Flags: MW
AnchorPoint: "abvmark" 160 700 basechar 0
LayerCount: 4
Fore
SplineSet
40 0 m 1
 40 0 77 40 100 40 c 0
 123 40 160 0 160 0 c 9
 240 80 l 1
 240 320 l 25
 160 400 l 1
 80 320 l 1049
55 625 m 25
 105 575 l 1049
80 600 m 1
 80 -150 l 1025
EndSplineSet
EndChar
StartChar: dcroat
Encoding: 273 273 319
Width: 320
Flags: MW
AnchorPoint: "blwmark" 160 0 basechar 0
AnchorPoint: "abvmark" 200 700 basechar 0
LayerCount: 4
Fore
SplineSet
300 335 m 1
 40 75 l 1025
240 320 m 1
 160 400 l 25
 80 320 l 1
 80 80 l 25
 160 0 l 25
 240 80 l 1
 240 450 l 10
 240 500 195 550 160 550 c 0
 125 550 80 563 80 600 c 27
 80 623 100 630 113 650 c 1049
EndSplineSet
EndChar
StartChar: hbar
Encoding: 295 295 964
Width: 320
Flags: MW
AnchorPoint: "abvmark" 160 700 basechar 0
AnchorPoint: "blwmark" 160 0 basechar 0
LayerCount: 4
Fore
SplineSet
215 50 m 25
 265 0 l 1049
55 50 m 25
 105 0 l 1049
55 625 m 25
 105 575 l 1049
80 600 m 9
 80 25 l 1049
240 25 m 25
 240 340 l 25
 180 400 l 1
 80 300 l 1049
160 475 m 25
 20 475 l 1049
EndSplineSet
EndChar
StartChar: dotlessi
Encoding: 305 305 97
Width: 160
Flags: MW
AnchorPoint: "blwmark" 80 0 basechar 0
AnchorPoint: "abvmark" 80 500 basechar 0
LayerCount: 4
Fore
SplineSet
55 50 m 25
 105 0 l 25
 155 50 l 1049
105 350 m 25
 55 400 l 25
 5 350 l 1049
80 375 m 9
 80 25 l 1025
EndSplineSet
EndChar
StartChar: lslash
Encoding: 322 322 291
Width: 160
Flags: MW
LayerCount: 4
Fore
SplineSet
140 370 m 25
 20 250 l 1049
60 40 m 25
 100 0 l 25
 140 40 l 1049
60 625 m 25
 100 585 l 1049
80 605 m 9
 80 20 l 1049
EndSplineSet
EndChar
StartChar: Eng
Encoding: 330 330 599
Width: 560
Flags: MW
AnchorPoint: "abvmark" 320 700 basechar 0
LayerCount: 4
Fore
SplineSet
40 550 m 1
 40 550 67 600 99 600 c 3
 128 600 142 575 160 575 c 3
 182 575 200 600 201 600 c 1025
40 0 m 17
 40 0 65 50 120 50 c 3
 198 50 220 0 220 0 c 1
 260 40 l 1
 260 560 l 1
 300 600 l 1
 460 475 l 1
 460 -120 l 1
 380 -200 l 1
 380 -200 330 -150 200 -150 c 3
 53 -150 40 -200 40 -200 c 1033
EndSplineSet
Layer: 2
SplineSet
160 550 m 5
 160 75 l 1029
EndSplineSet
EndChar
StartChar: eng
Encoding: 331 331 600
Width: 320
Flags: MW
AnchorPoint: "abvmark" 160 500 basechar 0
LayerCount: 4
Fore
SplineSet
80 306 m 25
 180 406 l 1
 240 346 l 1
 240 -150 l 1
 240 -150 202 -200 180 -200 c 0
 154 -200 137 -150 100 -150 c 16
 70 -150 40 -200 40 -200 c 1033
60 40 m 25
 100 0 l 1049
100 366 m 25
 60 406 l 1049
80 386 m 9
 80 20 l 1025
EndSplineSet
EndChar
StartChar: OE
Encoding: 338 338 116
Width: 1000
Flags: MW
AnchorPoint: "blwmark" 480 0 basechar 0
AnchorPoint: "abvmark" 520 700 basechar 0
LayerCount: 4
Fore
SplineSet
740 300 m 25
 740 300 778 350 800 350 c 27
 828 350 812 300 840 300 c 3
 873 300 900 350 901 350 c 1049
740 500 m 1
 740 100 l 1025
640 600 m 1
 640 600 500 480 500 300 c 3
 500 134 576 0 720 0 c 3
 815 0 921 150 922 150 c 1025
640 492 m 1
 640 492 716 600 764 600 c 3
 815 600 794 550 840 550 c 3
 878 550 900 600 901 600 c 1025
322 550 m 1
 320 100 l 1025
220 600 m 1
 220 600 80 480 80 300 c 3
 80 134 156 0 300 0 c 3
 395 0 502 142 502 300 c 3
 502 512 429 600 340 600 c 3
 270 600 220 492 220 492 c 1025
EndSplineSet
Layer: 2
SplineSet
640 550 m 5
 640 100 l 1029
220 550 m 1
 220 100 l 1025
EndSplineSet
EndChar
StartChar: oe
Encoding: 339 339 115
Width: 440
Flags: MW
AnchorPoint: "blwmark" 240 0 basechar 0
AnchorPoint: "abvmark" 240 500 basechar 0
LayerCount: 4
Fore
SplineSet
400 80 m 9
 320 0 l 25
 240 80 l 25
 240 320 l 25
 320 400 l 25
 400 320 l 1
 400 280 l 1
 240 120 l 1025
160 400 m 25
 80 320 l 25
 80 80 l 25
 160 0 l 25
 240 80 l 25
 240 320 l 25
 160 400 l 25
EndSplineSet
EndChar
StartChar: florin
Encoding: 402 402 260
Width: 320
Flags: MW
LayerCount: 4
Fore
SplineSet
-100 -200 m 17
 -100 -200 -70 -150 -40 -150 c 8
 -3 -150 3 -200 40 -200 c 24
 70 -200 100 -150 100 -150 c 1
 180 570 l 5
 260 650 l 17
 260 650 292 610 320 610 c 28
 348 610 380 650 381 650 c 1037
80 400 m 25
 280 400 l 1049
EndSplineSet
EndChar
StartChar: hv
Encoding: 405 405 514
Width: 480
Flags: MW
AnchorPoint: "blwmark" 240 0 basechar 0
AnchorPoint: "abvmark" 240 700 basechar 0
LayerCount: 4
Fore
SplineSet
404 550 m 17
 404 550 360 507 360 472 c 16
 360 423 400 380 400 380 c 9
 400 80 l 1
 320 0 l 25
 240 80 l 1
 240 340 l 25
 180 400 l 1
 80 300 l 1049
60 40 m 25
 100 0 l 1049
60 625 m 25
 100 585 l 1049
80 605 m 9
 80 20 l 1049
EndSplineSet
EndChar
StartChar: wynn
Encoding: 447 447 877
Width: 320
Flags: MW
AnchorPoint: "abvmark" 160 500 basechar 0
LayerCount: 4
Fore
SplineSet
40 -50 m 9
 240 150 l 1
 240 320 l 25
 160 400 l 1
 80 320 l 1049
55 400 m 25
 105 350 l 1049
80 375 m 1
 80 -150 l 1025
EndSplineSet
EndChar
StartChar: dotlessj
Encoding: 567 567 98
Width: 160
Flags: MW
AnchorPoint: "abvmark" 80 500 basechar 0
LayerCount: 4
Fore
SplineSet
100 360 m 25
 60 400 l 25
 20 360 l 1049
80 380 m 1
 80 -110 l 9
 40 -150 l 1049
EndSplineSet
EndChar
StartChar: Rsmallcap
Encoding: 640 640 854
Width: 360
Flags: MW
AnchorPoint: "blwmark" 180 0 basechar 0
AnchorPoint: "abvmark" 160 500 basechar 0
LayerCount: 4
Fore
SplineSet
60 40 m 25
 100 0 l 1049
60 400 m 25
 100 360 l 1049
80 380 m 9
 80 20 l 1025
320 40 m 25
 280 0 l 1
 280 0 263 79 240 125 c 24
 223 159 180 200 180 200 c 1025
160 180 m 1
 280 300 l 1
 160 400 l 1
 80 320 l 1049
EndSplineSet
EndChar
StartChar: circumflex
Encoding: 710 710 100
Width: 320
Flags: MW
LayerCount: 4
Fore
SplineSet
240 525 m 25
 240 525 160 600 160 700 c 5
 160 550 80 525 80 525 c 1025
EndSplineSet
EndChar
StartChar: caron
Encoding: 711 711 245
Width: 320
Flags: MW
LayerCount: 4
Fore
SplineSet
80 700 m 25
 80 700 160 625 160 525 c 1
 160 675 240 700 240 700 c 1025
EndSplineSet
EndChar
StartChar: breve
Encoding: 728 728 265
Width: 320
Flags: MW
LayerCount: 4
Fore
SplineSet
80 600 m 17
 80 600 92 525 180 525 c 3
 216 525 260 600 260 600 c 1033
EndSplineSet
EndChar
StartChar: dotaccent
Encoding: 729 729 269
Width: 320
Flags: MW
LayerCount: 4
Fore
SplineSet
140 590 m 25
 180 550 l 1049
EndSplineSet
EndChar
StartChar: ogonek
Encoding: 731 731 283
Width: 320
Flags: MW
LayerCount: 4
Fore
SplineSet
160 0 m 25
 100 -60 l 1
 100 -150 l 9
 180 -200 l 25
 220 -160 l 1049
EndSplineSet
EndChar
StartChar: ringbelow
Encoding: 755 755 886
Width: 320
Flags: MW
LayerCount: 4
Fore
SplineSet
80 -150 m 4
 80 -90 92 -75 140 -75 c 4
 200 -75 240 -125 240 -200 c 4
 240 -260 228 -275 180 -275 c 4
 120 -275 80 -225 80 -150 c 4
EndSplineSet
EndChar
StartChar: dotbelowcmb
Encoding: 803 803 357
Width: 0
VWidth: 400
Flags: MW
AnchorPoint: "blwmark" -160 0 mark 0
LayerCount: 4
Fore
SplineSet
-180 -110 m 25
 -140 -150 l 1049
EndSplineSet
EndChar
StartChar: tridotright
Encoding: 4347 4347 895
Width: 400
Flags: MW
LayerCount: 4
Fore
SplineSet
300 195 m 25
 340 155 l 1049
100 350 m 25
 140 310 l 1049
100 40 m 25
 140 0 l 1049
EndSplineSet
EndChar
StartChar: Germandbls
Encoding: 7838 7838 136
Width: 560
Flags: MW
AnchorPoint: "abvmark" 320 700 basechar 0
LayerCount: 4
Fore
SplineSet
40 0 m 17
 40 0 65 50 120 50 c 3
 198 50 220 0 220 0 c 1
 260 40 l 1
 260 560 l 1
 300 600 l 1
 480 475 l 1
 480 355 l 1
 400 275 l 9
 480 225 l 25
 480 -140 l 25
 420 -200 l 1
 399 -160 333 -140 280 -140 c 3
 178 -140 140 -200 140 -200 c 1025
40 550 m 1
 40 550 67 600 99 600 c 3
 128 600 142 575 160 575 c 3
 182 575 200 600 201 600 c 1025
EndSplineSet
Layer: 2
SplineSet
160 550 m 5
 160 75 l 1029
EndSplineSet
EndChar
StartChar: figuredash
Encoding: 8210 8210 908
Width: 320
Flags: MW
LayerCount: 4
Fore
SplineSet
80 200 m 25
 240 200 l 1049
EndSplineSet
EndChar
StartChar: endash
Encoding: 8211 8211 257
Width: 320
Flags: MW
LayerCount: 4
Fore
SplineSet
40 200 m 25
 280 200 l 1049
EndSplineSet
EndChar
StartChar: quoteleft
Encoding: 8216 8216 254
Width: 240
Flags: MW
LayerCount: 4
Fore
SplineSet
140 435 m 25
 100 475 l 1
 100 515 l 25
 160 575 l 1049
EndSplineSet
EndChar
StartChar: quoteright
Encoding: 8217 8217 255
Width: 240
Flags: MW
LayerCount: 4
Fore
SplineSet
100 590 m 29
 140 550 l 1
 140 510 l 29
 80 450 l 1053
EndSplineSet
EndChar
StartChar: quotesinglbase
Encoding: 8218 8218 256
Width: 240
VWidth: 450
Flags: MW
LayerCount: 4
Fore
SplineSet
100 40 m 29
 140 0 l 1
 140 -40 l 29
 80 -100 l 1053
EndSplineSet
EndChar
StartChar: quotereversed
Encoding: 8219 8219 928
Width: 240
Flags: MW
LayerCount: 4
Layer: 3
SplineSet
150 600 m 25
 100 550 l 1
 100 500 l 25
 175 425 l 1049
EndSplineSet
EndChar
StartChar: quotedblleft
Encoding: 8220 8220 251
Width: 400
Flags: MW
LayerCount: 4
Fore
SplineSet
140 435 m 29
 100 475 l 1
 100 515 l 29
 160 575 l 1053
300 435 m 29
 260 475 l 5
 260 515 l 29
 320 575 l 1053
EndSplineSet
EndChar
StartChar: quotedblright
Encoding: 8221 8221 252
Width: 400
Flags: MW
LayerCount: 4
Fore
SplineSet
260 590 m 29
 300 550 l 1
 300 510 l 29
 240 450 l 1053
100 590 m 29
 140 550 l 5
 140 510 l 29
 80 450 l 1053
EndSplineSet
EndChar
StartChar: quotedblbase
Encoding: 8222 8222 253
Width: 400
VWidth: 450
Flags: MW
LayerCount: 4
Fore
SplineSet
250 50 m 25
 300 0 l 1
 300 -50 l 25
 225 -125 l 1049
90 50 m 25
 140 0 l 1
 140 -50 l 25
 65 -125 l 1049
EndSplineSet
EndChar
StartChar: quotedblrev
Encoding: 8223 8223 929
Width: 400
Flags: MW
LayerCount: 4
Layer: 3
SplineSet
140 590 m 25
 100 550 l 1
 100 510 l 25
 160 450 l 1049
300 590 m 25
 260 550 l 1
 260 510 l 25
 320 450 l 1049
EndSplineSet
EndChar
StartChar: dagger
Encoding: 8224 8224 262
Width: 320
Flags: MW
LayerCount: 4
Fore
SplineSet
40 405 m 25
 90 355 l 25
 230 415 l 25
 280 365 l 1049
140 560 m 1
 140 560 150 463 152 400 c 24
 158 186 160 -150 160 -150 c 1
 160 -150 162 186 168 400 c 24
 170 478 180 600 180 600 c 9
 140 560 l 1
EndSplineSet
EndChar
StartChar: guilsinglright
Encoding: 8250 8250 243
Width: 240
Flags: MW
LayerCount: 4
Fore
SplineSet
60 325 m 21
 60 325 77 295 100 275 c 4
 176 207 200 200 200 200 c 5
 200 200 149 174 80 100 c 4
 63 82 40 50 40 50 c 1037
EndSplineSet
EndChar
StartChar: refmark
Encoding: 8251 8251 953
Width: 480
Flags: MW
LayerCount: 4
Fore
SplineSet
400 500 m 25
 80 100 l 1049
80 500 m 25
 400 100 l 1049
380 350 m 25
 420 310 l 1049
200 115 m 25
 240 75 l 1049
240 525 m 25
 280 485 l 1049
60 290 m 25
 100 250 l 1049
EndSplineSet
EndChar
StartChar: fraction
Encoding: 8260 8260 217
Width: 560
Flags: MW
LayerCount: 4
Fore
SplineSet
80 0 m 29
 480 700 l 1053
EndSplineSet
EndChar
StartChar: bracketquillleft
Encoding: 8261 8261 916
Width: 240
Flags: MW
LayerCount: 4
Fore
SplineSet
200 300 m 25
 80 300 l 1049
200 700 m 25
 80 700 l 25
 80 -150 l 25
 200 -150 l 1033
EndSplineSet
EndChar
StartChar: bracketquillright
Encoding: 8262 8262 917
Width: 240
Flags: MW
LayerCount: 4
Fore
SplineSet
40 300 m 25
 160 300 l 1049
40 700 m 25
 160 700 l 25
 160 -150 l 25
 40 -150 l 1033
EndSplineSet
EndChar
StartChar: lozengedot
Encoding: 8280 8280 899
Width: 480
Flags: MW
LayerCount: 4
Fore
SplineSet
340 195 m 25
 380 155 l 1049
220 40 m 25
 260 0 l 1049
220 350 m 25
 260 310 l 1049
100 195 m 25
 140 155 l 1049
EndSplineSet
EndChar
StartChar: dotcross
Encoding: 8284 8284 954
Width: 480
Flags: MW
LayerCount: 4
Fore
SplineSet
240 550 m 25
 240 50 l 1049
40 300 m 25
 440 300 l 1049
340 475 m 25
 380 435 l 1049
340 165 m 25
 380 125 l 1049
100 475 m 25
 140 435 l 1049
100 165 m 25
 140 125 l 1049
EndSplineSet
EndChar
StartChar: Euro
Encoding: 8364 8364 264
Width: 440
Flags: MW
LayerCount: 4
Fore
SplineSet
40 225 m 25
 280 225 l 1049
40 375 m 25
 320 375 l 1049
380 525 m 9
 280 600 l 25
 120 440 l 25
 120 100 l 25
 280 0 l 25
 400 120 l 1041
EndSplineSet
EndChar
StartChar: minus
Encoding: 8722 8722 214
Width: 480
Flags: MW
LayerCount: 4
Fore
SplineSet
80 300 m 25
 400 300 l 1049
EndSplineSet
EndChar
StartChar: logicaland
Encoding: 8743 8743 952
Width: 480
Flags: MW
LayerCount: 4
Fore
SplineSet
80 0 m 25
 240 400 l 25
 400 0 l 1049
EndSplineSet
EndChar
StartChar: therefore
Encoding: 8756 8756 896
Width: 480
Flags: MW
LayerCount: 4
Fore
SplineSet
340 40 m 25
 380 0 l 1049
220 350 m 25
 260 310 l 1049
100 40 m 25
 140 0 l 1049
EndSplineSet
EndChar
StartChar: because
Encoding: 8757 8757 897
Width: 480
Flags: MW
LayerCount: 4
Fore
SplineSet
340 350 m 25
 380 310 l 1049
100 350 m 25
 140 310 l 1049
220 40 m 25
 260 0 l 1049
EndSplineSet
EndChar
StartChar: proportion
Encoding: 8759 8759 898
Width: 480
Flags: MW
LayerCount: 4
Fore
SplineSet
340 350 m 25
 380 310 l 1049
340 40 m 25
 380 0 l 1049
100 350 m 25
 140 310 l 1049
100 40 m 25
 140 0 l 1049
EndSplineSet
EndChar
StartChar: bracketangleleft
Encoding: 9296 9296 930
Width: 320
Flags: MW
LayerCount: 4
Fore
SplineSet
260 675 m 17
 260 675 196 554 180 525 c 0
 144 459 40 250 40 250 c 1
 40 250 163 60 200 0 c 0
 214 -22 280 -150 280 -150 c 1033
EndSplineSet
EndChar
StartChar: bracketangleright
Encoding: 9297 9297 931
Width: 320
Flags: MW
LayerCount: 4
Fore
SplineSet
60 675 m 21
 60 675 124 554 140 525 c 4
 176 459 280 250 280 250 c 5
 280 250 157 60 120 0 c 4
 106 -22 40 -150 40 -150 c 1037
EndSplineSet
EndChar
StartChar: FleuronCenter
Encoding: 10086 10086 955
Width: 560
Flags: MW
LayerCount: 4
Back
SplineSet
320 700 m 5
 320 700 360 644 360 600 c 27
 360 521 280 425 280 425 c 1025
40 575 m 25
 60 600 l 25
 500 575 l 25
 520 600 l 1049
440 100 m 1
 440 100 367 0 280 0 c 3
 183 0 60 141 60 300 c 27
 60 376 99 450 160 450 c 27
 210 450 240 325 240 325 c 1
 240 325 270 450 320 450 c 27
 364 450 400 399 400 350 c 3
 400 277 349 244 300 200 c 8
 266 169 260 128 260 75 c 19
 260 47 300 25 300 25 c 1025
EndSplineSet
Fore
SplineSet
440 100 m 1
 440 100 412.711914062 54.203125 360 25 c 1025
320 700 m 1
 320 700 360 644 360 600 c 27
 360 521 280 425 280 425 c 1025
40 575 m 25
 60 600 l 25
 500 575 l 25
 520 600 l 1049
360 25 m 1
 338.661132812 13.177734375 305.127929688 0 280 0 c 0
 183.200195312 0 60 141 60 300 c 27
 60 376 99.2001953125 450 160 450 c 27
 209.599609375 450 240 325 240 325 c 1
 240 325 270.400390625 450 320 450 c 27
 364 450 400 399 400 350 c 3
 400 277.390625 349.04296875 243.852539062 300 200 c 8
 265.599609375 169 260 128 260 75 c 19
 260 47.4765625 297.599609375 25 360 25 c 1
EndSplineSet
Colour: ffff00
EndChar
StartChar: FleuronRight
Encoding: 10087 10087 956
Width: 640
Flags: MW
LayerCount: 4
Back
SplineSet
40 150 m 25
 60 200 l 25
 260 300 l 1049
140 0 m 25
 120 25 l 25
 140 475 l 25
 120 500 l 1049
600 350 m 1
 600 350 498 25 360 25 c 27
 299 25 240 74 240 150 c 27
 240 212 340 250 340 250 c 1
 340 250 240 288 240 350 c 27
 240 405 281 450 320 450 c 3
 378 450 405 386 440 325 c 8
 463 285 461 225 500 225 c 3
 534 225 580 325 580 325 c 1025
EndSplineSet
Fore
SplineSet
40 150 m 25
 60 200 l 25
 260 300 l 1049
140 0 m 25
 120 25 l 25
 140 475 l 25
 120 500 l 1049
600 350 m 1
 600 350 497.599609375 25 360 25 c 3
 299.200195312 25 240 74 240 150 c 27
 240 212 340 250 340 250 c 1
 340 250 240 288 240 350 c 27
 240 405 280.799804688 450 320 450 c 3
 378.400390625 450 404.799804688 386 440 325 c 8
 463.200195312 285 460.799804688 225 500 225 c 3
 533.599609375 225 600 350 600 350 c 1
EndSplineSet
Colour: ffff00
EndChar
StartChar: bracketwhiteleft
Encoding: 10214 10214 918
Width: 320
Flags: MW
LayerCount: 4
Fore
SplineSet
280 700 m 25
 80 700 l 25
 80 -150 l 25
 280 -150 l 1033
EndSplineSet
Layer: 2
SplineSet
180 650 m 29
 180 -100 l 1053
EndSplineSet
EndChar
StartChar: bracketwhiteright
Encoding: 10215 10215 919
Width: 320
Flags: MW
LayerCount: 4
Fore
SplineSet
40 700 m 25
 240 700 l 25
 240 -150 l 25
 40 -150 l 1033
EndSplineSet
Layer: 2
SplineSet
140 650 m 29
 140 -100 l 1053
EndSplineSet
EndChar
StartChar: luslst
Encoding: 11788 11788 902
Width: 240
Flags: MW
LayerCount: 4
Fore
SplineSet
40 700 m 25
 200 450 l 1049
EndSplineSet
EndChar
StartChar: ramus
Encoding: 11801 11801 911
Width: 480
Flags: MW
LayerCount: 4
Fore
SplineSet
288 662 m 1
 288 662 288 625 288 600 c 27
 288 551 316 475 316 475 c 1
 316 475 388 516 428 550 c 24
 444 564 458 588 458 588 c 1025
60 350 m 1
 60 350 60 274 60 225 c 27
 60 127 123 -25 123 -25 c 1
 123 -25 261 57 340 125 c 24
 372 153 400 200 400 200 c 1025
175 506 m 1
 175 506 175 449 175 412 c 27
 175 339 220 225 220 225 c 1
 220 225 326 287 385 338 c 24
 409 359 430 394 430 394 c 1025
80 -150 m 25
 400 700 l 1049
EndSplineSet
EndChar
StartChar: rlslst
Encoding: 11804 11804 904
Width: 240
Flags: MW
LayerCount: 4
Fore
SplineSet
40 100 m 25
 200 -150 l 1049
EndSplineSet
EndChar
StartChar: llslst
Encoding: 11805 11805 905
Width: 240
Flags: MW
LayerCount: 4
Fore
SplineSet
40 -150 m 25
 200 100 l 1049
EndSplineSet
EndChar
StartChar: barquillleft
Encoding: 11808 11808 920
Width: 240
Flags: MW
LayerCount: 4
Fore
SplineSet
200 300 m 25
 80 300 l 1049
80 700 m 25
 80 -150 l 1049
EndSplineSet
EndChar
StartChar: bracketbottomleft
Encoding: 11812 11812 924
Width: 240
Flags: MW
LayerCount: 4
Fore
SplineSet
80 300 m 1
 80 -150 l 9
 200 -150 l 1033
EndSplineSet
EndChar
StartChar: bracketbottomright
Encoding: 11813 11813 925
Width: 240
Flags: MW
LayerCount: 4
Fore
SplineSet
160 300 m 1
 160 -150 l 9
 40 -150 l 1033
EndSplineSet
EndChar
StartChar: Ubracketright
Encoding: 11815 11815 913
Width: 400
Flags: MW
LayerCount: 4
Fore
SplineSet
40 400 m 1
 160 400 l 26
 248 400 320 310 320 200 c 27
 320 90 248 0 160 0 c 26
 40 0 l 1025
EndSplineSet
EndChar
StartChar: fivedots
Encoding: 11821 11821 935
Width: 480
Flags: MW
LayerCount: 4
Fore
SplineSet
220 195 m 25
 260 155 l 1049
360 195 m 25
 400 155 l 1049
220 15 m 25
 260 -25 l 1049
220 375 m 25
 260 335 l 1049
80 195 m 25
 120 155 l 1049
EndSplineSet
EndChar
StartChar: a_a
Encoding: 42803 42803 336
Width: 480
Flags: MW
AnchorPoint: "abvmark" 240 500 basechar 0
AnchorPoint: "blwmark" 240 0 basechar 0
LayerCount: 4
Fore
SplineSet
240 340 m 1
 300 400 l 1
 400 375 l 1
 400 20 l 1
 420 0 l 1
 460 40 l 1049
400 100 m 25
 300 0 l 1
 240 60 l 1
 240 190 l 1
 300 250 l 1
 300 250 315 225 360 225 c 3
 375 225 400 225 400 225 c 1033
100 280 m 17
 80 340 l 1
 140 400 l 1
 240 375 l 1
 240 100 l 9
 140 0 l 1
 80 60 l 1
 80 190 l 1
 140 250 l 1
 140 250 155 225 200 225 c 3
 215 225 240 225 240 225 c 1033
EndSplineSet
LCarets2: 1 240 
Ligature2: "Historic ligatures-1" a a
EndChar
StartChar: a_u
Encoding: 42807 42807 344
Width: 480
Flags: MW
AnchorPoint: "blwmark" 240 0 basechar 0
AnchorPoint: "abvmark" 240 500 basechar 0
LayerCount: 4
Fore
SplineSet
240 100 m 9
 140 0 l 1
 80 60 l 1
 80 190 l 1
 140 250 l 1
 140 250 155 225 200 225 c 3
 215 225 240 225 240 225 c 1033
460 40 m 25
 420 0 l 1
 400 20 l 17
 400 380 l 1025
420 360 m 25
 380 400 l 1049
400 100 m 25
 300 0 l 25
 240 60 l 1
 240 375 l 17
 140 400 l 1
 80 340 l 1
 100 280 l 1033
EndSplineSet
LCarets2: 1 240 
Ligature2: "Historic ligatures-1" a u
EndChar
StartChar: a_y
Encoding: 42813 42813 346
Width: 480
Flags: MW
AnchorPoint: "abvmark" 240 500 basechar 0
LayerCount: 4
Fore
SplineSet
240 100 m 9
 140 0 l 1
 80 60 l 1
 80 190 l 1
 140 250 l 1
 140 250 155 225 200 225 c 3
 215 225 240 225 240 225 c 1033
420 360 m 25
 380 400 l 1049
200 -200 m 17
 200 -200 230 -150 260 -150 c 8
 297 -150 303 -200 340 -200 c 24
 370 -200 400 -150 400 -150 c 1
 400 380 l 1025
400 80 m 9
 320 0 l 25
 240 80 l 1
 240 375 l 17
 140 400 l 1
 80 340 l 1
 100 280 l 1033
EndSplineSet
LCarets2: 1 240 
Ligature2: "Historic ligatures-1" a y
EndChar
StartChar: kbar
Encoding: 42817 42817 862
Width: 320
Flags: MW
AnchorPoint: "abvmark" 160 700 basechar 0
AnchorPoint: "blwmark" 160 0 basechar 0
LayerCount: 4
Fore
SplineSet
160 475 m 25
 20 475 l 1049
220 425 m 25
 260 385 l 1049
60 625 m 25
 100 585 l 1049
60 625 m 25
 100 585 l 1049
80 200 m 1
 240 350 l 9
 240 405 l 1049
160 275 m 1
 240 200 l 1
 240 20 l 1025
220 40 m 25
 260 0 l 1049
60 40 m 25
 100 0 l 1049
60 625 m 25
 100 585 l 1049
80 605 m 9
 80 20 l 1049
EndSplineSet
EndChar
StartChar: kslash
Encoding: 42819 42819 863
Width: 320
Flags: MW
AnchorPoint: "abvmark" 160 700 basechar 0
AnchorPoint: "blwmark" 160 0 basechar 0
LayerCount: 4
Fore
SplineSet
300 220 m 25
 180 100 l 1049
215 425 m 25
 265 375 l 1049
55 625 m 25
 105 575 l 1049
55 625 m 25
 105 575 l 1049
80 200 m 1
 240 350 l 9
 240 400 l 1049
160 275 m 1
 240 200 l 1
 240 25 l 1025
215 50 m 25
 265 0 l 1049
55 50 m 25
 105 0 l 1049
55 625 m 25
 105 575 l 1049
80 600 m 9
 80 25 l 1049
EndSplineSet
EndChar
StartChar: lbroken
Encoding: 42823 42823 574
Width: 280
Flags: MW
LayerCount: 4
Fore
SplineSet
180 40 m 25
 220 0 l 25
 260 40 l 1049
60 625 m 25
 100 585 l 1049
80 605 m 1
 80 280 l 1
 200 400 l 1
 200 20 l 1025
EndSplineSet
EndChar
StartChar: lbar
Encoding: 42825 42825 865
Width: 160
Flags: MW
AnchorPoint: "abvmark" 80 700 basechar 0
AnchorPoint: "blwmark" 80 0 basechar 0
LayerCount: 4
Fore
SplineSet
60 40 m 25
 100 0 l 25
 140 40 l 1049
60 625 m 25
 100 585 l 1049
80 605 m 9
 80 20 l 1049
140 475 m 25
 20 475 l 1049
EndSplineSet
EndChar
StartChar: obiit
Encoding: 42827 42827 866
Width: 320
Flags: MW
LayerCount: 4
Fore
SplineSet
20 225 m 25
 300 225 l 1049
160 400 m 25
 80 320 l 25
 80 80 l 25
 160 0 l 25
 240 80 l 25
 240 320 l 25
 160 400 l 25
EndSplineSet
EndChar
StartChar: oeloop
Encoding: 42829 42829 867
Width: 440
Flags: MW
AnchorPoint: "abvmark" 240 500 basechar 0
AnchorPoint: "blwmark" 240 0 basechar 0
LayerCount: 4
Fore
SplineSet
240 80 m 25
 240 320 l 25
 320 400 l 25
 400 320 l 1
 400 280 l 1
 240 120 l 1025
240 80 m 9
 160 0 l 1
 80 80 l 25
 80 320 l 25
 160 400 l 25
 240 320 l 1041
EndSplineSet
EndChar
StartChar: pbar
Encoding: 42833 42833 868
Width: 320
Flags: MW
AnchorPoint: "abvmark" 160 500 basechar 0
LayerCount: 4
Fore
SplineSet
40 50 m 1
 40 50 77 100 100 100 c 0
 165 100 200 0 200 0 c 9
 240 40 l 1
 240 320 l 25
 160 400 l 1
 80 320 l 1049
60 400 m 25
 100 360 l 1049
80 380 m 1
 80 -150 l 1025
160 -75 m 25
 20 -75 l 1049
EndSplineSet
EndChar
StartChar: psquirrel
Encoding: 42837 42837 870
Width: 400
Flags: MW
AnchorPoint: "abvmark" 240 500 basechar 0
LayerCount: 4
Fore
SplineSet
160 320 m 25
 240 400 l 1
 320 320 l 25
 320 80 l 1
 240 0 l 1
 240 0 238 50 20 50 c 1
 20 50 60 156 60 200 c 3
 60 332 20 400 20 400 c 1033
135 400 m 25
 185 350 l 1049
160 375 m 1
 160 -150 l 1025
EndSplineSet
EndChar
StartChar: qslash
Encoding: 42841 42841 872
Width: 320
Flags: MW
AnchorPoint: "abvmark" 180 500 basechar 0
LayerCount: 4
Fore
SplineSet
240 80 m 9
 160 0 l 25
 80 80 l 25
 80 320 l 25
 160 400 l 1
 160 400 180 368 200 368 c 24
 220 368 240 400 240 400 c 9
 240 -150 l 1049
300 10 m 25
 140 -150 l 1049
EndSplineSet
EndChar
StartChar: vslash
Encoding: 42847 42847 873
Width: 320
Flags: MW
LayerCount: 4
Fore
SplineSet
100 360 m 25
 60 400 l 1049
80 380 m 25
 80 80 l 1
 160 0 l 25
 240 80 l 1
 240 380 l 17
 240 380 200 423 200 472 c 8
 200 507 244 550 244 550 c 1033
180 310 m 25
 20 150 l 1049
EndSplineSet
EndChar
StartChar: y_y
Encoding: 42849 42849 834
Width: 480
Flags: MW
AnchorPoint: "abvmark" 240 500 basechar 0
LayerCount: 4
Fore
SplineSet
260 360 m 25
 220 400 l 1049
420 360 m 25
 380 400 l 1049
40 -200 m 17
 40 -200 70 -150 100 -150 c 8
 196 -150 244 -200 340 -200 c 24
 370 -200 400 -150 400 -150 c 1
 400 380 l 1025
400 80 m 9
 320 0 l 25
 240 80 l 1
 240 380 l 1049
100 360 m 25
 60 400 l 1049
240 80 m 9
 160 0 l 25
 80 80 l 1
 80 380 l 1049
EndSplineSet
LCarets2: 1 240 
Ligature2: "Historic ligatures-1" y y
EndChar
StartChar: thornbarbelow
Encoding: 42855 42855 875
Width: 320
Flags: MW
AnchorPoint: "abvmark" 160 700 basechar 0
LayerCount: 4
Fore
SplineSet
160 -75 m 25
 20 -75 l 1049
80 320 m 25
 160 400 l 1
 240 320 l 1
 240 40 l 1
 200 0 l 1
 200 0 165 100 100 100 c 0
 77 100 40 50 40 50 c 1025
60 625 m 25
 100 585 l 1049
80 605 m 1
 80 -150 l 1025
EndSplineSet
EndChar
StartChar: Vend
Encoding: 42856 42856 971
Width: 560
Flags: W
AnchorPoint: "abvmark" 320 700 basechar 0
LayerCount: 4
Fore
SplineSet
200 0 m 1
 480 280 l 1
 480 560 l 1
 440 600 l 1025
300 600 m 1
 260 560 l 1
 260 -150 l 1
 220 -200 l 1
 220 -200 198.400390625 -150 120 -150 c 3
 64.7998046875 -150 40 -200 40 -200 c 1033
40 550 m 1
 40 550 67.2001953125 600 99.2001953125 600 c 3
 128 600 142.400390625 575 160 575 c 3
 182.400390625 575 200 600 200.799804688 600 c 1025
EndSplineSet
Layer: 2
SplineSet
160 550 m 5
 160 -125 l 1029
EndSplineSet
EndChar
StartChar: vend
Encoding: 42857 42857 876
Width: 320
Flags: MW
AnchorPoint: "abvmark" 160 500 basechar 0
LayerCount: 4
Fore
SplineSet
40 -50 m 9
 240 150 l 1
 240 360 l 25
 200 400 l 1025
60 400 m 25
 100 360 l 1049
80 380 m 1
 80 -150 l 1025
EndSplineSet
EndChar
StartChar: etfin
Encoding: 42859 42859 959
Width: 280
Flags: MW
LayerCount: 4
Fore
SplineSet
40 340 m 25
 100 400 l 1
 200 300 l 1
 80 180 l 1
 200 100 l 1
 200 -40 l 1
 0 -200 l 1025
EndSplineSet
EndChar
StartChar: is
Encoding: 42861 42861 957
Width: 360
Flags: MW
LayerCount: 4
Fore
SplineSet
-100 -200 m 17
 -100 -200 -70 -150 -40 -150 c 8
 -3 -150 3 -200 40 -200 c 24
 70 -200 100 -150 100 -150 c 1
 100 570 l 1
 180 650 l 25
 260 570 l 25
 260 330 l 25
 0 50 l 1049
EndSplineSet
EndChar
StartChar: con
Encoding: 42863 42863 890
Width: 320
Flags: MW
LayerCount: 4
Fore
SplineSet
190 -150 m 25
 240 -100 l 1
 240 320 l 9
 160 400 l 1
 80 320 l 25
 80 80 l 25
 160 0 l 1049
EndSplineSet
EndChar
StartChar: dum
Encoding: 42865 42865 448
Width: 480
Flags: MW
AnchorPoint: "abvmark" 200 700 basechar 0
LayerCount: 4
Fore
SplineSet
320 225 m 1
 360 200 l 1
 360 200 360 139 360 100 c 27
 360 3 240 -150 240 -150 c 1025
240 320 m 1
 160 400 l 25
 80 320 l 1
 80 80 l 25
 160 0 l 17
 240 80 l 1025
113 650 m 25
 100 630 80 623 80 600 c 27
 80 563 125 550 160 550 c 0
 195 550 240 500 240 450 c 18
 240 0 l 9
 290 50 l 17
 290 50 305 0 380 0 c 3
 425 0 440 50 440 50 c 1033
EndSplineSet
EndChar
StartChar: lum
Encoding: 42866 42866 573
Width: 340
Flags: MW
LayerCount: 4
Fore
SplineSet
180 225 m 1
 220 200 l 1
 220 200 220 139 220 100 c 27
 220 3 100 -150 100 -150 c 1025
300 50 m 17
 300 50 285 0 240 0 c 3
 165 0 140 40 140 40 c 9
 100 0 l 25
 60 40 l 1025
60 625 m 25
 100 585 l 1049
80 605 m 9
 80 20 l 1049
EndSplineSet
EndChar
StartChar: mum
Encoding: 42867 42867 587
Width: 660
Flags: MW
LayerCount: 4
Fore
SplineSet
400 20 m 1
 400 340 l 25
 340 400 l 1
 240 300 l 1041
220 40 m 9
 260 0 l 1041
240 20 m 1
 240 340 l 25
 180 400 l 1
 80 300 l 1041
60 40 m 9
 100 0 l 1041
100 360 m 9
 60 400 l 1041
80 380 m 9
 80 20 l 1025
500 225 m 1
 540 200 l 1
 540 200 540 139 540 100 c 27
 540 3 420 -150 420 -150 c 1025
620 50 m 17
 620 50 605 0 560 0 c 3
 485 0 460 40 460 40 c 9
 420 0 l 25
 380 40 l 1025
EndSplineSet
EndChar
StartChar: num
Encoding: 42868 42868 597
Width: 500
Flags: MW
LayerCount: 4
Fore
SplineSet
340 225 m 1
 380 200 l 1
 380 200 380 139 380 100 c 27
 380 3 260 -150 260 -150 c 1025
460 50 m 17
 460 50 445 0 400 0 c 3
 325 0 300 40 300 40 c 1
 260 0 l 25
 220 40 l 1025
240 20 m 1
 240 340 l 25
 180 400 l 1
 80 300 l 1049
60 40 m 25
 100 0 l 1049
100 360 m 25
 60 400 l 1049
80 380 m 9
 80 20 l 1025
EndSplineSet
EndChar
StartChar: rum
Encoding: 42869 42869 704
Width: 360
Flags: MW
LayerCount: 4
Fore
SplineSet
200 525 m 1
 240 500 l 1
 240 500 240 406 240 250 c 3
 240 -37 120 -150 120 -150 c 1025
320 400 m 17
 320 400 305 350 260 350 c 3
 185 350 160 400 160 400 c 9
 80 320 l 1025
60 40 m 25
 100 0 l 1049
60 400 m 25
 100 360 l 1049
80 380 m 9
 80 20 l 1025
EndSplineSet
EndChar
StartChar: Rumsmallcap
Encoding: 42870 42870 858
Width: 520
Flags: MW
LayerCount: 4
Fore
SplineSet
360 225 m 1
 400 200 l 1
 400 200 400 139 400 100 c 27
 400 3 280 -150 280 -150 c 1025
480 50 m 17
 480 50 465 0 420 0 c 3
 345 0 335 50 335 50 c 9
 285 0 l 1
 285 0 264 79 240 125 c 24
 223 158 180 200 180 200 c 1025
55 50 m 25
 105 0 l 1049
55 400 m 25
 105 350 l 1049
80 375 m 9
 80 25 l 1025
160 180 m 1
 280 300 l 1
 160 400 l 1
 80 320 l 1049
EndSplineSet
EndChar
StartChar: thorn_longs
Encoding: 59188 59188 884
Width: 320
Flags: MW
LayerCount: 4
Fore
SplineSet
-100 -200 m 17
 -100 -200 -70 -150 -40 -150 c 8
 -3 -150 3 -200 40 -200 c 24
 70 -200 100 -150 100 -150 c 1
 100 570 l 1
 180 650 l 21
 180 650 212 610 240 610 c 28
 268 610 300 650 301 650 c 1033
40 0 m 1
 40 0 77 40 100 40 c 0
 123 40 160 0 160 0 c 9
 240 80 l 1
 240 320 l 25
 160 400 l 1
 80 320 l 1049
EndSplineSet
LCarets2: 1 160 
Ligature2: "Historic ligatures-1" thorn longs
EndChar
StartChar: thornbar_longs
Encoding: 59189 59189 885
Width: 320
Flags: MW
LayerCount: 4
Fore
SplineSet
160 475 m 25
 20 475 l 1049
-100 -200 m 17
 -100 -200 -70 -150 -40 -150 c 8
 -3 -150 3 -200 40 -200 c 24
 70 -200 100 -150 100 -150 c 1
 100 570 l 1
 180 650 l 17
 180 650 212 610 240 610 c 24
 268 610 300 650 301 650 c 1033
40 0 m 1
 40 0 77 40 100 40 c 0
 123 40 160 0 160 0 c 9
 240 80 l 1
 240 320 l 25
 160 400 l 1
 80 320 l 1049
EndSplineSet
LCarets2: 1 160 
Ligature2: "Historic ligatures-1" thornbar longs
EndChar
StartChar: q_etfin
Encoding: 59583 59583 966
Width: 480
Flags: MW
LayerCount: 4
Fore
SplineSet
240 80 m 9
 160 0 l 25
 80 80 l 25
 80 320 l 25
 160 400 l 1
 160 400 180 368 200 368 c 24
 220 368 240 400 240 400 c 9
 240 -150 l 1049
240 340 m 25
 300 400 l 1
 400 300 l 1
 280 180 l 1
 400 100 l 1
 400 -40 l 1
 200 -200 l 1025
EndSplineSet
LCarets2: 1 240 
Ligature2: "Ligatures-1" q etfin
EndChar
StartChar: g_p
Encoding: 60114 60114 501
Width: 480
Flags: MW
LayerCount: 4
Fore
SplineSet
200 0 m 5
 200 0 237 40 260 40 c 4
 283 40 320 0 320 0 c 9
 400 80 l 5
 400 320 l 25
 320 400 l 1
 240 320 l 1049
40 -200 m 17
 40 -200 70 -150 100 -150 c 8
 137 -150 143 -200 180 -200 c 24
 210 -200 240 -150 240 -150 c 9
 240 400 l 1
 240 400 220 368 200 368 c 24
 180 368 160 400 160 400 c 1
 80 320 l 25
 80 80 l 29
 140 0 l 5
 240 100 l 1053
240 -150 m 9
 280 -200 l 1025
EndSplineSet
LCarets2: 1 240 
Ligature2: "Historic ligatures-1" g p
EndChar
StartChar: longs_h
Encoding: 60321 60321 707
Width: 520
Flags: MW
LayerCount: 4
Fore
SplineSet
420 40 m 25
 460 0 l 1049
260 40 m 25
 300 0 l 1049
440 20 m 25
 440 340 l 25
 380 400 l 1
 280 300 l 1049
-100 -200 m 17
 -100 -200 -70 -150 -40 -150 c 8
 -3 -150 3 -200 40 -200 c 24
 70 -200 100 -150 100 -150 c 1
 100 570 l 1
 180 650 l 1
 180 650 202 600 280 600 c 9
 280 20 l 1025
EndSplineSet
LCarets2: 1 240 
Ligature2: "Ligatures-1" longs h
EndChar
StartChar: longs_i
Encoding: 60322 60322 328
Width: 360
GlyphClass: 3
Flags: MW
LayerCount: 4
Fore
SplineSet
280 380 m 9
 280 20 l 1025
260 40 m 25
 300 0 l 25
 340 40 l 1049
260 400 m 25
 300 360 l 1025
-100 -200 m 1
 -100 -200 -70 -150 -40 -150 c 8
 -3 -150 3 -200 40 -200 c 24
 70 -200 100 -150 100 -150 c 1
 100 570 l 5
 180 650 l 5
 180 650 240 600 320 600 c 9
 280 560 l 1025
EndSplineSet
LCarets2: 1 240 
Ligature2: "Ligatures-1" longs i
EndChar
StartChar: longs_l
Encoding: 60323 60323 330
Width: 360
GlyphClass: 3
Flags: MW
LayerCount: 4
Fore
SplineSet
-100 -200 m 17
 -100 -200 -70 -150 -40 -150 c 8
 -3 -150 3 -200 40 -200 c 24
 70 -200 100 -150 100 -150 c 1
 100 570 l 1
 180 650 l 1
 180 650 195 625 255 625 c 9
 305 575 l 1025
255 50 m 25
 305 0 l 25
 355 50 l 1049
280 600 m 9
 280 25 l 1049
EndSplineSet
LCarets2: 1 240 
Ligature2: "Ligatures-1" longs l
EndChar
StartChar: longs_longs_l
Encoding: 60328 60328 332
Width: 520
GlyphClass: 3
Flags: MW
LayerCount: 4
Fore
SplineSet
100 -150 m 1
 125 -150 174 -200 200 -200 c 0
 222 -200 260 -150 260 -150 c 1
 260 570 l 1
 340 650 l 17
 340 650 372 625 420 625 c 1
 460 585 l 1025
-100 -200 m 17
 -100 -200 -70 -150 -40 -150 c 8
 -3 -150 3 -200 40 -200 c 24
 70 -200 100 -150 100 -150 c 1
 100 570 l 1
 180 650 l 1
 180 650 225 570 260 570 c 1025
420 40 m 25
 460 0 l 25
 500 40 l 1049
440 605 m 9
 440 20 l 1049
EndSplineSet
LCarets2: 2 240 400 
Ligature2: "Ligatures-1" longs longs l
EndChar
StartChar: longs_t_r
Encoding: 60330 60330 713
Width: 560
Flags: MW
LayerCount: 4
Fore
SplineSet
520 360 m 25
 480 400 l 25
 400 320 l 1049
380 40 m 25
 420 0 l 1049
400 380 m 9
 400 20 l 1025
-100 -200 m 1
 -100 -200 -70 -150 -40 -150 c 8
 -3 -150 3 -200 40 -200 c 24
 70 -200 100 -150 100 -150 c 1
 100 570 l 1
 180 650 l 1
 180 650 225 550 260 550 c 1
 260 40 l 1
 300 0 l 1
 380 80 l 1025
200 400 m 1
 380 400 l 25
 420 360 l 1025
EndSplineSet
LCarets2: 2 240 400 
Ligature2: "Ligatures-1" longs t r
EndChar
StartChar: h_longs
Encoding: 60333 60333 515
Width: 340
Flags: MW
LayerCount: 4
Fore
SplineSet
240 40 m 25
 280 0 l 1049
260 20 m 25
 260 340 l 25
 200 400 l 1
 100 300 l 1049
-100 -200 m 17
 -100 -200 -70 -150 -40 -150 c 8
 -3 -150 3 -200 40 -200 c 24
 70 -200 100 -150 100 -150 c 1
 100 570 l 1
 180 650 l 17
 180 650 212 610 240 610 c 24
 268 610 300 650 301 650 c 1033
EndSplineSet
LCarets2: 1 180 
Ligature2: "Historic ligatures-1" h longs
EndChar
StartChar: k_longs
Encoding: 60334 60334 566
Width: 340
Flags: MW
LayerCount: 4
Fore
SplineSet
-100 -200 m 17
 -100 -200 -70 -150 -40 -150 c 8
 -3 -150 3 -200 40 -200 c 24
 70 -200 100 -150 100 -150 c 1
 100 570 l 1
 180 650 l 17
 180 650 212 610 240 610 c 24
 268 610 300 650 301 650 c 1033
240 40 m 25
 280 0 l 1049
180 275 m 1
 260 200 l 1
 260 20 l 1025
100 200 m 1
 260 350 l 9
 260 405 l 1049
240 425 m 25
 280 385 l 1049
EndSplineSet
LCarets2: 1 180 
Ligature2: "Historic ligatures-1" k longs
EndChar
StartChar: b_g
Encoding: 61123 61123 350
Width: 320
GlyphClass: 3
Flags: MW
LayerCount: 4
Fore
SplineSet
80 600 m 9
 80 80 l 25
 160 0 l 1
 240 80 l 25
 240 320 l 1
 160 400 l 1
 80 320 l 1049
40 -200 m 17
 40 -200 70 -150 100 -150 c 8
 137 -150 143 -200 180 -200 c 24
 210 -200 240 -150 240 -150 c 1
 240 80 l 1033
55 625 m 25
 105 575 l 1049
EndSplineSet
LCarets2: 1 160 
Ligature2: "Historic ligatures-1" b g
EndChar
StartChar: c_k
Encoding: 61124 61124 439
Width: 520
Flags: MW
LayerCount: 4
Fore
SplineSet
240 320 m 9
 160 400 l 25
 80 320 l 25
 80 80 l 25
 160 0 l 25
 240 80 l 1041
420 425 m 25
 460 385 l 1049
260 625 m 25
 300 585 l 1049
260 625 m 25
 300 585 l 1049
280 200 m 1
 440 350 l 9
 440 405 l 1049
360 275 m 1
 440 200 l 1
 440 20 l 1025
420 40 m 25
 460 0 l 1049
260 40 m 25
 300 0 l 1049
260 625 m 25
 300 585 l 1049
280 605 m 9
 280 20 l 1049
EndSplineSet
LCarets2: 1 280 
Ligature2: "Ligatures-1" c k
EndChar
StartChar: e_y
Encoding: 61127 61127 351
Width: 480
GlyphClass: 3
Flags: MW
LayerCount: 4
Fore
SplineSet
240 80 m 9
 160 0 l 25
 80 80 l 25
 80 320 l 25
 160 400 l 25
 240 320 l 1
 240 280 l 1
 80 120 l 1033
425 350 m 25
 375 400 l 1049
200 -200 m 17
 200 -200 230 -150 260 -150 c 8
 297 -150 303 -200 340 -200 c 24
 370 -200 400 -150 400 -150 c 1
 400 375 l 1025
400 80 m 9
 320 0 l 25
 240 80 l 1
 240 320 l 1049
EndSplineSet
LCarets2: 1 240 
Ligature2: "Historic ligatures-1" e y
EndChar
StartChar: f_j
Encoding: 61129 61129 322
Width: 360
GlyphClass: 3
Flags: MW
LayerCount: 4
Fore
SplineSet
280 380 m 1
 280 -110 l 9
 240 -150 l 1049
40 400 m 1
 260 400 l 25
 300 360 l 1025
-100 -200 m 1
 -100 -200 -70 -150 -40 -150 c 8
 -3 -150 3 -200 40 -200 c 24
 70 -200 100 -150 100 -150 c 1
 100 570 l 1
 180 650 l 1
 180 650 240 600 320 600 c 13
 280 560 l 1029
EndSplineSet
LCarets2: 1 240 
Ligature2: "Ligatures-1" f j
EndChar
StartChar: f_y
Encoding: 61133 61133 353
Width: 520
GlyphClass: 3
Flags: MW
LayerCount: 4
Fore
SplineSet
460 360 m 25
 420 400 l 1049
240 -200 m 17
 240 -200 270 -150 300 -150 c 8
 337 -150 343 -200 380 -200 c 24
 410 -200 440 -150 440 -150 c 1
 440 380 l 1025
440 80 m 9
 360 0 l 25
 280 80 l 1
 280 380 l 1049
-100 -200 m 17
 -100 -200 -70 -150 -40 -150 c 8
 -3 -150 3 -200 40 -200 c 24
 70 -200 100 -150 100 -150 c 1
 100 570 l 1
 180 650 l 17
 180 650 212 610 240 610 c 24
 268 610 300 650 301 650 c 1033
40 400 m 1
 260 400 l 25
 300 360 l 1025
EndSplineSet
LCarets2: 1 240 
Ligature2: "Ligatures-1" f y
EndChar
StartChar: f_f_t
Encoding: 61134 61134 354
Width: 580
GlyphClass: 3
Flags: MW
LayerCount: 4
Fore
SplineSet
540 80 m 1
 460 0 l 1
 420 40 l 1
 420 550 l 1
 385 550 340 650 340 650 c 9
 260 570 l 1
 260 -150 l 1
 260 -150 222 -200 200 -200 c 0
 174 -200 125 -150 100 -150 c 1025
-100 -200 m 17
 -100 -200 -70 -150 -40 -150 c 8
 -3 -150 3 -200 40 -200 c 24
 70 -200 100 -150 100 -150 c 1
 100 570 l 1
 180 650 l 1
 180 650 225 570 260 570 c 1025
40 400 m 1
 520 400 l 1049
EndSplineSet
LCarets2: 2 240 400 
Ligature2: "Ligatures-1" f f t
EndChar
StartChar: f_f_y
Encoding: 61135 61135 355
Width: 680
GlyphClass: 3
Flags: MW
LayerCount: 4
Fore
SplineSet
620 360 m 25
 580 400 l 1049
400 -200 m 17
 400 -200 430 -150 460 -150 c 8
 497 -150 503 -200 540 -200 c 24
 570 -200 600 -150 600 -150 c 1
 600 380 l 1025
600 80 m 9
 520 0 l 25
 440 80 l 1
 440 380 l 1049
100 -150 m 1
 125 -150 174 -200 200 -200 c 0
 222 -200 260 -150 260 -150 c 1
 260 570 l 1
 340 650 l 17
 340 650 372 610 400 610 c 24
 428 610 460 650 461 650 c 1025
-100 -200 m 1
 -100 -200 -70 -150 -40 -150 c 8
 -3 -150 3 -200 40 -200 c 24
 70 -200 100 -150 100 -150 c 1
 100 570 l 1
 180 650 l 1
 180 650 225 570 260 570 c 1025
40 400 m 1
 420 400 l 25
 460 360 l 1025
EndSplineSet
LCarets2: 2 240 400 
Ligature2: "Ligatures-1" f f y
EndChar
StartChar: f_t_y
Encoding: 61136 61136 356
Width: 680
GlyphClass: 3
Flags: MW
LayerCount: 4
Fore
SplineSet
620 360 m 25
 580 400 l 1049
400 -200 m 17
 400 -200 430 -150 460 -150 c 8
 497 -150 503 -200 540 -200 c 24
 570 -200 600 -150 600 -150 c 1
 600 380 l 1025
600 80 m 9
 520 0 l 25
 440 80 l 1
 440 380 l 1049
-100 -200 m 1
 -100 -200 -70 -150 -40 -150 c 8
 -3 -150 3 -200 40 -200 c 24
 70 -200 100 -150 100 -150 c 1
 100 570 l 1
 180 650 l 1
 180 650 225 550 260 550 c 1
 260 40 l 1
 300 0 l 1
 380 80 l 1025
40 400 m 1
 420 400 l 25
 460 360 l 1025
EndSplineSet
LCarets2: 2 240 400 
Ligature2: "Ligatures-1" f t y
EndChar
StartChar: g_d
Encoding: 61138 61138 498
Width: 320
Flags: MW
LayerCount: 4
Fore
SplineSet
240 400 m 1
 240 450 l 2
 240 505 195 550 160 550 c 0
 125 550 80 563 80 600 c 27
 80 623 100 630 113 650 c 1049
40 -200 m 17
 40 -200 70 -150 100 -150 c 8
 137 -150 143 -200 180 -200 c 24
 210 -200 240 -150 240 -150 c 9
 240 400 l 1
 240 400 220 368 200 368 c 24
 180 368 160 400 160 400 c 1
 80 320 l 25
 80 80 l 25
 160 0 l 25
 240 80 l 1041
EndSplineSet
LCarets2: 1 160 
Ligature2: "Historic ligatures-1" g d
EndChar
StartChar: p_p
Encoding: 61142 61142 689
Width: 480
Flags: MW
LayerCount: 4
Fore
SplineSet
240 -150 m 1
 240 320 l 9
 320 400 l 1
 400 320 l 25
 400 80 l 1
 320 0 l 1
 320 0 293 40 220 40 c 0
 197 40 160 0 160 0 c 1
 160 0 123 40 100 40 c 0
 77 40 40 0 40 0 c 1025
240 320 m 25
 160 400 l 1
 80 320 l 1049
55 400 m 25
 105 350 l 1049
80 375 m 1
 80 -150 l 1025
EndSplineSet
LCarets2: 1 240 
Ligature2: "Historic ligatures-1" p p
EndChar
StartChar: t_z
Encoding: 61148 61148 732
Width: 440
Flags: MW
LayerCount: 4
Fore
SplineSet
40 400 m 1
 40 400 61 350 200 350 c 0
 285 350 320 400 320 400 c 1
 360 360 l 1
 240 200 l 1
 360 100 l 1
 360 -150 l 1
 360 -150 322 -200 300 -200 c 0
 274 -200 257 -150 220 -150 c 16
 190 -150 160 -200 160 -200 c 1033
100 550 m 1
 100 40 l 1
 140 0 l 1
 220 80 l 1025
EndSplineSet
LCarets2: 1 240 
Ligature2: "Ligatures-1" t z
EndChar
StartChar: a_f
Encoding: 61347 61347 337
Width: 380
GlyphClass: 3
Flags: MW
LayerCount: 4
Fore
SplineSet
240 100 m 9
 140 0 l 1
 80 60 l 1
 80 190 l 1
 140 250 l 1
 140 250 155 225 200 225 c 3
 215 225 240 225 240 225 c 1033
40 -200 m 17
 40 -200 70 -150 100 -150 c 8
 137 -150 143 -200 180 -200 c 24
 210 -200 240 -150 240 -150 c 1
 240 570 l 1
 320 650 l 17
 320 650 352 610 380 610 c 24
 408 610 440 650 441 650 c 1033
340 400 m 1
 140 400 l 17
 80 340 l 1
 100 280 l 1033
EndSplineSet
LCarets2: 1 240 
Ligature2: "Historic ligatures-1" a f
EndChar
StartChar: a_g
Encoding: 61349 61349 338
Width: 480
GlyphClass: 3
Flags: MW
LayerCount: 4
Fore
SplineSet
100 280 m 17
 80 340 l 1
 140 400 l 1
 240 375 l 1
 240 100 l 9
 140 0 l 1
 80 60 l 1
 80 190 l 1
 140 250 l 1
 140 250 155 225 200 225 c 3
 215 225 240 225 240 225 c 1033
200 -200 m 17
 200 -200 230 -150 260 -150 c 8
 297 -150 303 -200 340 -200 c 24
 370 -200 400 -150 400 -150 c 9
 400 400 l 1
 400 400 380 368 360 368 c 24
 340 368 320 400 320 400 c 1
 240 320 l 25
 240 80 l 25
 320 0 l 25
 400 80 l 1041
EndSplineSet
LCarets2: 1 240 
Ligature2: "Historic ligatures-1" a g
EndChar
StartChar: a_l
Encoding: 61350 61350 339
Width: 320
GlyphClass: 3
Flags: MW
LayerCount: 4
Fore
SplineSet
100 280 m 17
 80 340 l 1
 140 400 l 1
 240 375 l 1
 240 100 l 9
 140 0 l 1
 80 60 l 1
 80 190 l 1
 140 250 l 1
 140 250 155 225 200 225 c 3
 215 225 240 225 240 225 c 1033
215 50 m 25
 265 0 l 25
 315 50 l 1049
215 625 m 25
 265 575 l 1049
240 600 m 9
 240 25 l 1049
EndSplineSet
LCarets2: 1 160 
Ligature2: "Historic ligatures-1" a l
EndChar
StartChar: a_n
Encoding: 61351 61351 340
Width: 480
GlyphClass: 3
Flags: MW
LayerCount: 4
Fore
SplineSet
100 280 m 17
 80 340 l 1
 140 400 l 1
 240 375 l 1
 240 100 l 9
 140 0 l 1
 80 60 l 1
 80 190 l 1
 140 250 l 1
 140 250 155 225 200 225 c 3
 215 225 240 225 240 225 c 1033
380 40 m 25
 420 0 l 1049
400 20 m 1
 400 340 l 25
 340 400 l 1
 240 300 l 1049
220 40 m 25
 260 0 l 1049
240 20 m 1
 240 375 l 1041
EndSplineSet
LCarets2: 1 240 
Ligature2: "Historic ligatures-1" a n
EndChar
StartChar: a_r
Encoding: 61354 61354 343
Width: 400
GlyphClass: 3
Flags: MW
LayerCount: 4
Fore
SplineSet
100 280 m 17
 80 340 l 1
 140 400 l 1
 240 375 l 1
 240 100 l 9
 140 0 l 1
 80 60 l 1
 80 190 l 1
 140 250 l 1
 140 250 155 225 200 225 c 3
 215 225 240 225 240 225 c 1033
300 40 m 25
 260 0 l 1
 240 20 l 1
 240 375 l 1025
360 360 m 25
 320 400 l 25
 240 320 l 1049
EndSplineSet
LCarets2: 1 240 
Ligature2: "Historic ligatures-1" a r
EndChar
StartChar: o_c
Encoding: 61357 61357 668
Width: 440
Flags: MW
LayerCount: 4
Fore
SplineSet
400 320 m 9
 320 400 l 25
 240 320 l 25
 240 80 l 25
 320 0 l 25
 400 80 l 1041
160 400 m 25
 80 320 l 25
 80 80 l 25
 160 0 l 25
 240 80 l 25
 240 320 l 25
 160 400 l 25
EndSplineSet
LCarets2: 1 240 
Ligature2: "Historic ligatures-1" o c
EndChar
StartChar: c_h
Encoding: 61883 61883 853
Width: 520
Flags: MW
LayerCount: 4
Fore
SplineSet
240 320 m 9
 160 400 l 25
 80 320 l 25
 80 80 l 25
 160 0 l 25
 240 80 l 1041
420 40 m 25
 460 0 l 1049
260 40 m 25
 300 0 l 1049
260 625 m 25
 300 585 l 1049
280 605 m 9
 280 20 l 1049
440 20 m 25
 440 340 l 25
 380 400 l 1
 280 300 l 1049
EndSplineSet
LCarets2: 1 240 
Ligature2: "Ligatures-1" c h
EndChar
StartChar: m.alt
Encoding: 61987 61987 588
Width: 480
Flags: MW
AnchorPoint: "abvmark" 240 500 basechar 0
LayerCount: 4
Fore
SplineSet
220 40 m 25
 260 0 l 1049
240 20 m 1
 240 340 l 25
 180 400 l 1
 80 300 l 1049
60 40 m 25
 100 0 l 1049
100 360 m 25
 60 400 l 1049
80 380 m 9
 80 20 l 1025
360 -150 m 25
 400 -110 l 1
 400 340 l 9
 340 400 l 1
 240 300 l 1049
EndSplineSet
EndChar
StartChar: n.alt
Encoding: 61992 61992 598
Width: 320
Flags: MW
AnchorPoint: "abvmark" 160 500 basechar 0
LayerCount: 4
Fore
SplineSet
60 40 m 25
 100 0 l 1049
100 360 m 25
 60 400 l 1049
80 380 m 9
 80 20 l 1025
200 -150 m 25
 240 -110 l 1
 240 340 l 9
 180 400 l 1
 80 300 l 1049
EndSplineSet
EndChar
StartChar: h.alt
Encoding: 62010 62010 860
Width: 320
Flags: MW
AnchorPoint: "abvmark" 160 700 basechar 0
LayerCount: 4
Fore
SplineSet
55 50 m 9
 105 0 l 1041
55 625 m 9
 105 575 l 1041
80 600 m 9
 80 25 l 1041
80 300 m 9
 180 400 l 1
 240 340 l 1
 240 -100 l 17
 190 -150 l 1025
EndSplineSet
EndChar
StartChar: l_l
Encoding: 62713 62713 575
Width: 320
Flags: MW
LayerCount: 4
Fore
SplineSet
220 40 m 25
 260 0 l 25
 300 40 l 1049
220 625 m 25
 260 585 l 1049
240 605 m 9
 240 20 l 1049
60 40 m 25
 100 0 l 25
 140 40 l 1049
60 625 m 25
 100 585 l 1049
80 605 m 9
 80 20 l 1049
EndSplineSet
LCarets2: 1 160 
Ligature2: "Ligatures-1" l l
EndChar
StartChar: longs_c_h
Encoding: 62714 62714 706
Width: 680
Flags: MW
LayerCount: 4
Fore
SplineSet
-100 -200 m 17
 -100 -200 -70 -150 -40 -150 c 8
 -3 -150 3 -200 40 -200 c 24
 70 -200 100 -150 100 -150 c 1
 100 570 l 1
 180 650 l 17
 180 650 212 610 240 610 c 24
 268 610 300 650 301 650 c 1033
400 320 m 9
 320 400 l 25
 240 320 l 25
 240 80 l 25
 320 0 l 25
 400 80 l 1041
575 50 m 25
 625 0 l 1049
415 50 m 25
 465 0 l 1049
415 625 m 25
 465 575 l 1049
440 600 m 9
 440 25 l 1049
600 25 m 25
 600 340 l 25
 540 400 l 1
 440 300 l 1049
EndSplineSet
LCarets2: 2 240 440 
Ligature2: "Ligatures-1" longs c h
EndChar
StartChar: longs_k
Encoding: 62716 62716 708
Width: 520
Flags: MW
LayerCount: 4
Fore
SplineSet
415 425 m 25
 465 375 l 1049
280 200 m 1
 440 350 l 9
 440 400 l 1049
360 275 m 1
 440 200 l 1
 440 25 l 1025
415 50 m 25
 465 0 l 1049
255 50 m 25
 305 0 l 1049
-100 -200 m 17
 -100 -200 -70 -150 -40 -150 c 8
 -3 -150 3 -200 40 -200 c 24
 70 -200 100 -150 100 -150 c 1
 100 570 l 1
 180 650 l 1
 180 650 213 600 280 600 c 9
 280 25 l 1025
EndSplineSet
LCarets2: 1 240 
Ligature2: "Ligatures-1" longs k
EndChar
StartChar: longs_longs_k
Encoding: 62718 62718 711
Width: 680
Flags: MW
LayerCount: 4
Fore
SplineSet
580 425 m 25
 620 385 l 1049
440 200 m 1
 600 350 l 9
 600 405 l 1049
520 275 m 1
 600 200 l 1
 600 20 l 1025
580 40 m 25
 620 0 l 1049
420 40 m 25
 460 0 l 1049
440 20 m 1
 440 600 l 1
 373 600 340 650 340 650 c 9
 260 570 l 1
 260 -150 l 1
 260 -150 222 -200 200 -200 c 0
 174 -200 125 -150 100 -150 c 1025
-100 -200 m 17
 -100 -200 -70 -150 -40 -150 c 8
 -3 -150 3 -200 40 -200 c 24
 70 -200 100 -150 100 -150 c 1
 100 570 l 1
 180 650 l 1
 180 650 225 570 260 570 c 1025
EndSplineSet
LCarets2: 2 240 400 
Ligature2: "Ligatures-1" longs longs k
EndChar
StartChar: f_i
Encoding: 64257 64257 321
Width: 360
Flags: MW
LayerCount: 4
Fore
SplineSet
280 375 m 9
 280 25 l 1025
255 50 m 25
 305 0 l 25
 355 50 l 1049
40 400 m 1
 255 400 l 25
 305 350 l 1025
-100 -200 m 1
 -100 -200 -70 -150 -40 -150 c 8
 -3 -150 3 -200 40 -200 c 24
 70 -200 100 -150 100 -150 c 1
 100 570 l 1
 180 650 l 1
 180 650 240 600 320 600 c 9
 270 550 l 1025
EndSplineSet
LCarets2: 1 240 
Ligature2: "Ligatures-1" f i
EndChar
StartChar: f_l
Encoding: 64258 64258 323
Width: 360
Flags: MW
LayerCount: 4
Fore
SplineSet
-100 -200 m 17
 -100 -200 -70 -150 -40 -150 c 8
 -3 -150 3 -200 40 -200 c 24
 70 -200 100 -150 100 -150 c 1
 100 570 l 1
 180 650 l 1
 180 650 212 625 260 625 c 9
 300 585 l 1025
40 400 m 25
 240 400 l 1049
260 40 m 25
 300 0 l 25
 340 40 l 1049
280 605 m 9
 280 20 l 1049
EndSplineSet
LCarets2: 1 240 
Ligature2: "Ligatures-1" f l
EndChar
StartChar: f_f_i
Encoding: 64259 64259 324
Width: 520
Flags: MW
LayerCount: 4
Fore
SplineSet
100 -150 m 1
 125 -150 174 -200 200 -200 c 0
 222 -200 260 -150 260 -150 c 1
 260 570 l 1
 340 650 l 17
 340 650 400 600 480 600 c 1
 440 560 l 1025
-100 -200 m 1
 -100 -200 -70 -150 -40 -150 c 8
 -3 -150 3 -200 40 -200 c 24
 70 -200 100 -150 100 -150 c 1
 100 570 l 1
 180 650 l 1
 180 650 225 570 260 570 c 1025
40 400 m 1
 420 400 l 25
 460 360 l 1025
440 380 m 9
 440 20 l 1025
420 40 m 25
 460 0 l 25
 500 40 l 1049
EndSplineSet
LCarets2: 2 240 400 
Ligature2: "Ligatures-1" f f i
EndChar
StartChar: longs_t
Encoding: 64261 64261 333
Width: 420
Flags: MW
LayerCount: 4
Fore
SplineSet
-100 -200 m 17
 -100 -200 -70 -150 -40 -150 c 8
 -3 -150 3 -200 40 -200 c 24
 70 -200 100 -150 100 -150 c 1
 100 570 l 1
 180 650 l 1
 180 650 225 550 260 550 c 1
 260 40 l 1
 300 0 l 1
 380 80 l 1025
200 400 m 25
 360 400 l 1049
EndSplineSet
LCarets2: 1 240 
Ligature2: "Ligatures-1" longs t
EndChar
StartChar: v.alt
Encoding: 65540 -1 782
Width: 320
Flags: MW
AnchorPoint: "abvmark" 160 500 basechar 0
AnchorPoint: "blwmark" 160 0 basechar 0
LayerCount: 4
Fore
SplineSet
200 400 m 1
 240 360 l 25
 240 80 l 1
 160 0 l 25
 80 80 l 1
 80 380 l 1049
100 360 m 25
 60 400 l 1049
EndSplineSet
EndChar
StartChar: w.alt
Encoding: 65542 -1 784
Width: 480
Flags: MW
AnchorPoint: "abvmark" 240 500 basechar 0
AnchorPoint: "blwmark" 240 0 basechar 0
LayerCount: 4
Fore
SplineSet
260 360 m 25
 220 400 l 1049
240 380 m 25
 240 80 l 1
 320 0 l 25
 400 80 l 1
 400 360 l 25
 360 400 l 1049
100 360 m 25
 60 400 l 1049
80 380 m 25
 80 80 l 1
 160 0 l 25
 240 80 l 1025
EndSplineSet
EndChar
